<svg xmlns="http://www.w3.org/2000/svg" viewBox="0 0 829.13 109.25"><defs><style>.cls-1,.cls-2,.cls-4,.cls-5{fill:#fff;}.cls-2,.cls-4,.cls-5{font-size:15.06px;font-family:Dutch801BT-ExtraBold, Dutch801 XBd BT;font-weight:800;}.cls-2{letter-spacing:0.02em;}.cls-3{letter-spacing:0.04em;}.cls-4{letter-spacing:0.02em;}.cls-5{letter-spacing:0.02em;}</style></defs><g id="Layer_2" data-name="Layer 2"><g id="Layer_2-2" data-name="Layer 2"><path class="cls-1" d="M43.11,96.58a7.8,7.8,0,0,0-4.7-1.76,19.61,19.61,0,0,0-5.24.66c-1.74.43-3.4,1-4.64,1.38s-2.05.73-2.05.73a20.24,20.24,0,0,0,2.06,1,22.92,22.92,0,0,0,4.94,1.49,13.28,13.28,0,0,0,5.79-.15A5.21,5.21,0,0,0,43.11,96.58Z"/><path class="cls-1" d="M37.78,88.83a10,10,0,0,0,3,4,5.24,5.24,0,0,0,2.14,1,4.08,4.08,0,0,0,2.4-.23A8,8,0,0,0,44,89.05a13.54,13.54,0,0,0-3-3.28,31.5,31.5,0,0,0-3.21-2.27c-.89-.56-1.5-.89-1.5-.89s0,.2,0,.55.09.82.19,1.41A17.71,17.71,0,0,0,37.78,88.83Z"/><path class="cls-1" d="M25.21,92.9a5.55,5.55,0,0,0,4.39-2.21,6.13,6.13,0,0,0-3.77-2.88,20.27,20.27,0,0,0-5.22-.67c-1.8-.06-3.59,0-4.94,0l-2.24,0s.17.19.48.49.77.72,1.33,1.18a21.07,21.07,0,0,0,4.52,2.84A12.21,12.21,0,0,0,25.21,92.9Z"/><path class="cls-1" d="M28.54,86a4.81,4.81,0,0,0,4.1,2,6.67,6.67,0,0,0,.11-4.75,14.77,14.77,0,0,0-2.17-4,36.23,36.23,0,0,0-2.36-2.9c-.31-.36-.58-.65-.77-.84l-.29-.31s-.06.18-.14.5a13.5,13.5,0,0,0-.27,1.36,14.6,14.6,0,0,0,0,4.36A9.83,9.83,0,0,0,28.54,86Z"/><path class="cls-1" d="M7.14,73.47c-1.24-.39-2-.62-2-.62s.07.2.23.55.42.82.74,1.39.7,1.23,1.16,1.92c.23.35.47.7.72,1.06l.21.28.25.33.53.66a11.37,11.37,0,0,0,5,3.6,5.2,5.2,0,0,0,4.92-.72,6.93,6.93,0,0,0-2.71-4c-.33-.26-.69-.5-1.05-.75s-.75-.48-1.15-.71-.79-.49-1.2-.72-.78-.41-1.18-.6A36.39,36.39,0,0,0,7.14,73.47Z"/><path class="cls-1" d="M19.27,76.57a4.41,4.41,0,0,0,3.21,3.13,7.44,7.44,0,0,0,1.62-4.41,20.62,20.62,0,0,0-.27-4,14.11,14.11,0,0,0-.43-2c-.19-.67-.39-1.27-.58-1.78s-.36-.91-.48-1.2l-.17-.45s-.12.16-.31.46-.44.72-.72,1.24a22,22,0,0,0-1.66,4.14c-.12.41-.22.82-.3,1.24a11.55,11.55,0,0,0-.18,1.2,9.94,9.94,0,0,0,0,1.22A7.58,7.58,0,0,0,19.27,76.57Z"/><path class="cls-1" d="M5.24,67.34a7.83,7.83,0,0,0,1,1,9.5,9.5,0,0,0,1,.78,5.61,5.61,0,0,0,4.78.81,5.09,5.09,0,0,0-.14-2.41,5.53,5.53,0,0,0-.47-1.06c-.19-.34-.43-.66-.65-1A15.4,15.4,0,0,0,6.93,62a40,40,0,0,0-4-2.52l-1.9-1a5.07,5.07,0,0,0,.13.6c.1.38.25.91.47,1.54a20.24,20.24,0,0,0,2,4.52A18.09,18.09,0,0,0,5.24,67.34Z"/><path class="cls-1" d="M14.66,66.66a4.71,4.71,0,0,0,1.53,1.78,6.5,6.5,0,0,0,3-3.74,8.48,8.48,0,0,0,.28-1.13,5.21,5.21,0,0,0,.09-.57l.09-.58a15,15,0,0,0,.1-2.31,38.05,38.05,0,0,0-.38-3.92c-.08-.51-.18-.93-.25-1.22L19,54.51l-.38.38A13.1,13.1,0,0,0,17.69,56a19.88,19.88,0,0,0-2.41,3.71,11.06,11.06,0,0,0-1.16,4.77,4.39,4.39,0,0,0,.15,1.16A5.08,5.08,0,0,0,14.66,66.66Z"/><path class="cls-1" d="M2.2,53a10.22,10.22,0,0,0,.73,1.15,8.4,8.4,0,0,0,.88,1,5.6,5.6,0,0,0,4.55,1.73,5,5,0,0,0,.31-2.38,5.43,5.43,0,0,0-.25-1.13A7.4,7.4,0,0,0,8,52.23a11.42,11.42,0,0,0-1.33-2.14c-.28-.34-.55-.69-.82-1s-.57-.67-.86-1c-1.18-1.3-2.49-2.5-3.4-3.39S0,43.22,0,43.22s0,.91.06,2.27c.05.67.19,1.46.34,2.31.08.42.17.85.28,1.3a9.36,9.36,0,0,0,.38,1.32A18.44,18.44,0,0,0,2.2,53Z"/><path class="cls-1" d="M12.67,55.88a6.58,6.58,0,0,0,3.63-3.05,8,8,0,0,0,.5-1,10.94,10.94,0,0,0,.44-1.07,13.43,13.43,0,0,0,.55-2.16c.14-.71.29-1.4.36-2,0-.32.06-.63.08-.92s0-.56.07-.81a12.86,12.86,0,0,0,.09-1.64,18.32,18.32,0,0,0-1.62,1l-.76.58c-.27.22-.55.45-.81.7a17.92,17.92,0,0,0-1.6,1.72c-.26.32-.51.65-.75,1l-.34.53c-.1.18-.2.36-.28.54a9.36,9.36,0,0,0-.79,2.28,6.6,6.6,0,0,0-.11,1.16,5.24,5.24,0,0,0,.18,1.12A4.56,4.56,0,0,0,12.67,55.88Z"/><path class="cls-1" d="M6.4,34.08c-.4-.78-.83-1.54-1.26-2.24L4,30c-.68-1.09-1.17-1.81-1.17-1.81s-.26.86-.53,2.19c-.1.68-.19,1.47-.26,2.33C2,33.09,2,33.53,2,34s0,.92.07,1.39a17,17,0,0,0,.44,2.77,11.1,11.1,0,0,0,1.06,2.48,5.47,5.47,0,0,0,4,2.75,5.33,5.33,0,0,0,.54-1.1,5.63,5.63,0,0,0,.3-1.12,5.9,5.9,0,0,0-.11-2.32,13,13,0,0,0-.73-2.38C7.2,35.66,6.79,34.85,6.4,34.08Z"/><path class="cls-1" d="M16.15,41a8.91,8.91,0,0,0,1.39-1.75,13.44,13.44,0,0,0,1.1-1.89c.16-.32.27-.64.42-.94s.28-.61.4-.9c.25-.58.42-1.13.58-1.59a13,13,0,0,0,.51-1.55,17,17,0,0,0-1.84.6,16.18,16.18,0,0,0-3.82,2,10.24,10.24,0,0,0-1,.77c-.3.28-.59.57-.86.87a8.59,8.59,0,0,0-1.34,2,5.71,5.71,0,0,0-.48,2.21,3.87,3.87,0,0,0,.16,1.11,4.77,4.77,0,0,0,.52,1.1A6.88,6.88,0,0,0,16.15,41Z"/><path class="cls-1" d="M10.86,29.31a5.36,5.36,0,0,0,.59-1,5.09,5.09,0,0,0,.33-1.09,10.8,10.8,0,0,0,.15-1.16,11.7,11.7,0,0,0-.13-2.48A25.88,25.88,0,0,0,11.3,21c-.44-1.72-.92-3.33-1.34-4.56s-.72-2-.72-2l-.3.53c-.18.34-.42.83-.69,1.44a21.06,21.06,0,0,0-1.52,4.73,17.51,17.51,0,0,0-.25,2.78,7.8,7.8,0,0,0,.11,1.36,7.66,7.66,0,0,0,.28,1.28A5.88,5.88,0,0,0,8,28.74a5.46,5.46,0,0,0,2,1.49A4.91,4.91,0,0,0,10.86,29.31Z"/><path class="cls-1" d="M25.14,22.78c.16-.24.24-.39.24-.39l-.53,0a12.94,12.94,0,0,0-1.4.12,18.87,18.87,0,0,0-2,.35c-.36.08-.75.17-1.12.28s-.74.25-1.12.41A12.26,12.26,0,0,0,17,24.68a9,9,0,0,0-1.78,1.58,4.61,4.61,0,0,0-.63.95,6.18,6.18,0,0,0-.39,1,4.56,4.56,0,0,0-.14,1.11,5.09,5.09,0,0,0,.22,1.18,6.66,6.66,0,0,0,2.49-.06,7.86,7.86,0,0,0,2.13-.83,6.54,6.54,0,0,0,.93-.62,5.38,5.38,0,0,0,.43-.34l.44-.36a13.93,13.93,0,0,0,1.52-1.56,18.71,18.71,0,0,0,1.27-1.58l.26-.38c.1-.12.18-.24.27-.36s.32-.45.46-.66C24.79,23.38,25,23,25.14,22.78Z"/><path class="cls-1" d="M15.77,18.23a5,5,0,0,0,1.79-1.52,5.83,5.83,0,0,0,1-2.06,16.7,16.7,0,0,0,.52-5c0-.44,0-.88-.05-1.31S19,7.49,19,7.1c-.06-.8-.14-1.55-.21-2.19-.13-1.26-.27-2.1-.27-2.1l-.4.44a15.44,15.44,0,0,0-1,1.24c-.39.53-.84,1.14-1.27,1.86a21.32,21.32,0,0,0-1.2,2.34,15.23,15.23,0,0,0-.86,2.6,10.28,10.28,0,0,0-.24,2.62A5.65,5.65,0,0,0,15.77,18.23Z"/><path class="cls-1" d="M28.42,17.31A18.48,18.48,0,0,0,30,16c.49-.42.93-.82,1.29-1.17l.86-.86a3.82,3.82,0,0,0,.3-.33,16.63,16.63,0,0,0-1.92-.28,17.53,17.53,0,0,0-2-.08,14.61,14.61,0,0,0-2.34.18,10.13,10.13,0,0,0-4.49,1.71,5.47,5.47,0,0,0-1.47,1.68,4.37,4.37,0,0,0-.47,2.24,6.7,6.7,0,0,0,4.7.25,10,10,0,0,0,2.08-.87A15.94,15.94,0,0,0,28.42,17.31Z"/><path class="cls-1" d="M25.2,85.74c4.76,4,10.57,6.65,16.26,9,4.66,1.88,10.64,5,16.73,7.83A122.67,122.67,0,0,1,43,106.35c-.57.09,2.36,3.06,2.91,2.9,5-1.52,10.16-3.36,15.2-5.4,5.51,2.51,11,4.65,15.44,5.4.56.1,2.31-2.9,1.75-3A109.77,109.77,0,0,1,64,102.67,261.35,261.35,0,0,0,87.6,91.26a39.33,39.33,0,0,0,17.15-17.93,61,61,0,0,0,6.33-23.4c.5-11.19-3.26-22.17-9.09-31.61a70.45,70.45,0,0,0-5.73-8.07,4.67,4.67,0,0,0,.09-2.06A5.53,5.53,0,0,0,95.44,6a10.54,10.54,0,0,0-3.79-3.26,17.71,17.71,0,0,0-4.16-1.6C86.91,1,86.43.94,86.1.89l-.38,0H85.6l0,.12a3.15,3.15,0,0,1,.17.33c.15.3.37.72.64,1.23.55,1,1.3,2.34,2.18,3.64A18.59,18.59,0,0,0,90.07,8a9.07,9.07,0,0,0,.82.82,5.94,5.94,0,0,0,.87.72,6.24,6.24,0,0,0,2,.95,5.61,5.61,0,0,0,1.76.16,69.12,69.12,0,0,1,9.93,16,52.37,52.37,0,0,1,4.75,22.75c-.19,8.54-3,17.22-6.88,24.8A36.41,36.41,0,0,1,90.45,88.55a108.51,108.51,0,0,1-15.83,8c-4.06,1.76-8.87,3.56-13.76,5.16a178.73,178.73,0,0,1-29-12.5,38.62,38.62,0,0,1-10.51-8.43A42.74,42.74,0,0,1,14.58,69C11.33,61,9.26,52.82,9.77,44.18c.59-10.07,4.54-19.7,10.05-28a72.82,72.82,0,0,1,4.62-6.28,5.92,5.92,0,0,0,1.7-.17,6.24,6.24,0,0,0,2-.95A7.29,7.29,0,0,0,29,8a10.7,10.7,0,0,0,.82-.83,18.93,18.93,0,0,0,1.44-1.87,41.5,41.5,0,0,0,2.17-3.64c.27-.51.49-.93.64-1.23l.17-.34,0-.11h-.12L33.8,0c-.33,0-.81.13-1.38.27a17.6,17.6,0,0,0-4.17,1.6,10.66,10.66,0,0,0-3.8,3.26,5.79,5.79,0,0,0-.9,2.17,4.63,4.63,0,0,0,.08,2A70.09,70.09,0,0,0,14,24.63a54.83,54.83,0,0,0-5.21,21C8.49,54,10.76,62,13.9,69.67A40.4,40.4,0,0,0,25.2,85.74Z"/><path class="cls-1" d="M86.42,100.93a22.92,22.92,0,0,0,4.94-1.49c1.26-.55,2-1,2-1s-.8-.32-2-.73-2.9-.95-4.65-1.38a19.51,19.51,0,0,0-5.24-.66,8,8,0,0,0-2.4.46,8.44,8.44,0,0,0-2.29,1.29,5.2,5.2,0,0,0,3.84,3.36A13.28,13.28,0,0,0,86.42,100.93Z"/><path class="cls-1" d="M77,94.66a5.32,5.32,0,0,0,2.13-1,10.31,10.31,0,0,0,3-4,18.1,18.1,0,0,0,1.25-4.26c.1-.59.15-1.08.19-1.42s0-.54,0-.54-.61.33-1.49.88a33.71,33.71,0,0,0-3.22,2.27,14.24,14.24,0,0,0-3.05,3.29,8,8,0,0,0-1.23,4.53A4.11,4.11,0,0,0,77,94.66Z"/><path class="cls-1" d="M99.29,88a20.41,20.41,0,0,0-5.23.67,6.11,6.11,0,0,0-3.75,2.87,5.52,5.52,0,0,0,4.37,2.22,12.11,12.11,0,0,0,5.46-1.23,20.6,20.6,0,0,0,4.51-2.83c.57-.46,1-.89,1.34-1.18l.48-.49-2.24,0C102.88,88,101.09,87.93,99.29,88Z"/><path class="cls-1" d="M87.26,88.85a4.81,4.81,0,0,0,4.1-2,9.83,9.83,0,0,0,1.82-4.57,14.59,14.59,0,0,0,0-4.36c-.09-.57-.19-1-.27-1.36s-.15-.5-.15-.5-.11.1-.29.3-.46.49-.76.85c-.64.72-1.51,1.72-2.37,2.89a15.18,15.18,0,0,0-2.16,4A6.7,6.7,0,0,0,87.26,88.85Z"/><path class="cls-1" d="M111,79.89l.53-.66.25-.34.21-.27c.25-.36.49-.71.72-1.06.45-.69.84-1.35,1.17-1.92s.56-1,.72-1.39a5.8,5.8,0,0,0,.24-.55s-.8.23-2,.62a36.39,36.39,0,0,0-4.42,1.7c-.4.19-.79.38-1.18.6s-.82.47-1.2.71-.79.47-1.15.72-.72.49-1,.75a6.9,6.9,0,0,0-2.71,4,5.2,5.2,0,0,0,4.92.72A11.43,11.43,0,0,0,111,79.89Z"/><path class="cls-1" d="M100.42,72.59a22.75,22.75,0,0,0-1.66-4.14c-.28-.53-.52-.94-.72-1.24s-.31-.46-.31-.46l-.17.45c-.12.29-.3.7-.48,1.2s-.4,1.11-.58,1.77a16.45,16.45,0,0,0-.44,2,21.5,21.5,0,0,0-.26,4,7.49,7.49,0,0,0,1.61,4.41,4.41,4.41,0,0,0,3.21-3.14,6.4,6.4,0,0,0,.25-1.17,8.15,8.15,0,0,0,0-1.21,9.37,9.37,0,0,0-.17-1.2C100.64,73.41,100.53,73,100.42,72.59Z"/><path class="cls-1" d="M118.78,59.9a5.61,5.61,0,0,0,.13-.6l-1.9,1a40,40,0,0,0-4,2.52,15.22,15.22,0,0,0-3.84,3.43,10.64,10.64,0,0,0-.66,1,5.49,5.49,0,0,0-.46,1.06,5.22,5.22,0,0,0-.15,2.41,5.63,5.63,0,0,0,4.79-.81,9.5,9.5,0,0,0,1-.78,8.6,8.6,0,0,0,1-1A17.1,17.1,0,0,0,116.27,66a20.92,20.92,0,0,0,2-4.52C118.52,60.81,118.68,60.27,118.78,59.9Z"/><path class="cls-1" d="M103.7,69.29a4.63,4.63,0,0,0,1.53-1.78,5.11,5.11,0,0,0,.4-1.07,4.5,4.5,0,0,0,.15-1.16,11.34,11.34,0,0,0-1.15-4.77,20.93,20.93,0,0,0-2.42-3.71,13.1,13.1,0,0,0-.94-1.06l-.38-.38s0,.17-.09.46-.15.71-.24,1.22a38.34,38.34,0,0,0-.38,3.92,13.88,13.88,0,0,0,.1,2.31l.09.58c0,.19,0,.38.08.57a8.51,8.51,0,0,0,.29,1.13A6.48,6.48,0,0,0,103.7,69.29Z"/><path class="cls-1" d="M114.9,48.91c-.3.32-.58.66-.86,1l-.83,1a11.36,11.36,0,0,0-1.32,2.14,6.66,6.66,0,0,0-.41,1.1,5.08,5.08,0,0,0-.26,1.14,5,5,0,0,0,.32,2.37A5.61,5.61,0,0,0,116.09,56a8.4,8.4,0,0,0,.88-1,9.66,9.66,0,0,0,.72-1.15,17.33,17.33,0,0,0,1.14-2.56,11.13,11.13,0,0,0,.39-1.33c.1-.44.2-.87.28-1.3.15-.84.29-1.63.34-2.3.08-1.37,0-2.26,0-2.26s-.66.55-1.59,1.44S116.08,47.6,114.9,48.91Z"/><path class="cls-1" d="M108.39,54.71a5.34,5.34,0,0,0,.18-1.12,5.79,5.79,0,0,0-.12-1.16,8.92,8.92,0,0,0-.78-2.28c-.09-.18-.18-.36-.28-.54l-.34-.53c-.24-.35-.49-.69-.75-1a16.79,16.79,0,0,0-1.61-1.72,8.71,8.71,0,0,0-.8-.7l-.76-.58c-1-.68-1.63-1.06-1.63-1.06a14.55,14.55,0,0,0,.1,1.65,6.69,6.69,0,0,1,.06.81c0,.29,0,.59.09.91.07.64.22,1.33.36,2a12.45,12.45,0,0,0,.55,2.16,8.92,8.92,0,0,0,.44,1.07,7.3,7.3,0,0,0,.5,1,6.58,6.58,0,0,0,3.62,3.06A4.64,4.64,0,0,0,108.39,54.71Z"/><path class="cls-1" d="M111.62,39.69A6.3,6.3,0,0,0,111.5,42a6.43,6.43,0,0,0,.31,1.12,5.33,5.33,0,0,0,.54,1.1,5.45,5.45,0,0,0,4-2.75A11.58,11.58,0,0,0,117.44,39a15.83,15.83,0,0,0,.43-2.77c0-.47.07-.94.07-1.4s0-.89-.07-1.32c-.06-.86-.15-1.65-.25-2.33-.28-1.33-.53-2.19-.53-2.19s-.49.71-1.18,1.81l-1.15,1.89c-.43.7-.86,1.46-1.26,2.24s-.81,1.58-1.14,2.37A11.3,11.3,0,0,0,111.62,39.69Z"/><path class="cls-1" d="M108.18,39.46a8.38,8.38,0,0,0-1.34-2A10.24,10.24,0,0,0,105,35.83a16.48,16.48,0,0,0-3.83-2,17.22,17.22,0,0,0-1.84-.59,14.06,14.06,0,0,0,.52,1.54c.15.47.33,1,.58,1.6.11.29.25.59.4.89s.26.63.42,1a12.53,12.53,0,0,0,1.1,1.89,8.9,8.9,0,0,0,1.39,1.76,6.91,6.91,0,0,0,4.24,2,4.89,4.89,0,0,0,.51-1.09,3.92,3.92,0,0,0,.15-1.12A5.69,5.69,0,0,0,108.18,39.46Z"/><path class="cls-1" d="M110.65,15.28s-.29.79-.71,2-.9,2.84-1.35,4.56c-.21.86-.36,1.71-.49,2.57a11.08,11.08,0,0,0-.13,2.48c0,.39.07.79.14,1.16a5.75,5.75,0,0,0,.34,1.09,6.08,6.08,0,0,0,1.39,1.92,5.41,5.41,0,0,0,2-1.49A5.81,5.81,0,0,0,113,27.4a12.2,12.2,0,0,0,.29-1.29,8.67,8.67,0,0,0,.1-1.35,18.77,18.77,0,0,0-.25-2.78,20.63,20.63,0,0,0-1.52-4.72c-.27-.61-.52-1.11-.69-1.46S110.65,15.28,110.65,15.28Z"/><path class="cls-1" d="M105.26,28.05a4.43,4.43,0,0,0-.62-.95,9,9,0,0,0-1.79-1.57,12.22,12.22,0,0,0-2.19-1.12L99.54,24c-.37-.12-.76-.21-1.12-.29-.73-.16-1.4-.27-2-.34s-1-.11-1.39-.12l-.54,0s.08.14.24.39.34.6.62,1c.14.21.29.43.46.66s.17.24.27.36l.26.38a16.91,16.91,0,0,0,1.27,1.58,13.11,13.11,0,0,0,1.52,1.56l.43.35a4.7,4.7,0,0,0,.43.35,8.4,8.4,0,0,0,.94.61,7.41,7.41,0,0,0,2.14.84,6.4,6.4,0,0,0,2.48.05,4.44,4.44,0,0,0,.21-1.18,4.56,4.56,0,0,0-.13-1.11A5.07,5.07,0,0,0,105.26,28.05Z"/><path class="cls-1" d="M104.13,19.07a5.58,5.58,0,0,0,2.22-4.32,9.92,9.92,0,0,0-.24-2.62,15.09,15.09,0,0,0-.85-2.59,19.73,19.73,0,0,0-1.21-2.34c-.42-.72-.88-1.34-1.26-1.87a14.36,14.36,0,0,0-1-1.23l-.39-.44s-.14.84-.27,2.1c-.08.64-.15,1.39-.21,2.18,0,.4-.06.81-.07,1.23s0,.87-.06,1.3a17.09,17.09,0,0,0,.52,5,6.1,6.1,0,0,0,1,2.06A4.91,4.91,0,0,0,104.13,19.07Z"/><path class="cls-1" d="M98.18,16.05a9.89,9.89,0,0,0-4.49-1.71,14.68,14.68,0,0,0-2.35-.19,19.85,19.85,0,0,0-2,.09,19.26,19.26,0,0,0-1.92.28s.1.12.3.33.51.5.86.86.81.74,1.29,1.17,1,.86,1.6,1.28a14.23,14.23,0,0,0,1.88,1.18,9.08,9.08,0,0,0,2.07.88,6.7,6.7,0,0,0,4.7-.25,4.37,4.37,0,0,0-.47-2.24A5.61,5.61,0,0,0,98.18,16.05Z"/><path class="cls-1" d="M187.61,96.58a8.37,8.37,0,0,0-2.29-1.3,8.5,8.5,0,0,0-2.41-.46,19.56,19.56,0,0,0-5.24.66c-1.75.43-3.4,1-4.65,1.38s-2,.73-2,.73a20.24,20.24,0,0,0,2.06,1,22.75,22.75,0,0,0,4.94,1.49,13.28,13.28,0,0,0,5.79-.15A5.21,5.21,0,0,0,187.61,96.58Z"/><path class="cls-1" d="M182.27,88.83a10.21,10.21,0,0,0,3,4,5.34,5.34,0,0,0,2.15,1,4.09,4.09,0,0,0,2.4-.23,8,8,0,0,0-1.24-4.53,14,14,0,0,0-3-3.28,30.44,30.44,0,0,0-3.22-2.27c-.89-.56-1.49-.89-1.49-.89a5.39,5.39,0,0,0,0,.55c0,.34.09.82.19,1.41A17.64,17.64,0,0,0,182.27,88.83Z"/><path class="cls-1" d="M169.71,92.9a5.52,5.52,0,0,0,4.38-2.21,6.08,6.08,0,0,0-3.76-2.88,20.33,20.33,0,0,0-5.22-.67c-1.81-.06-3.6,0-4.94,0l-2.24,0a6.48,6.48,0,0,0,.48.49c.31.29.76.72,1.33,1.18a21,21,0,0,0,4.51,2.84A12.25,12.25,0,0,0,169.71,92.9Z"/><path class="cls-1" d="M173,86a4.8,4.8,0,0,0,4.1,2,6.61,6.61,0,0,0,.1-4.75,14.47,14.47,0,0,0-2.16-4,36.23,36.23,0,0,0-2.36-2.9c-.31-.36-.58-.65-.77-.84l-.29-.31s-.06.18-.15.5-.18.79-.27,1.36a15,15,0,0,0,0,4.36A9.73,9.73,0,0,0,173,86Z"/><path class="cls-1" d="M151.63,73.47c-1.23-.39-2-.62-2-.62s.08.2.24.55.41.82.73,1.39.71,1.23,1.17,1.92c.22.35.46.7.72,1.06l.2.28.26.33.52.66a11.45,11.45,0,0,0,5,3.6,5.2,5.2,0,0,0,4.92-.72,6.9,6.9,0,0,0-2.72-4c-.32-.26-.68-.5-1-.75s-.76-.48-1.15-.71-.79-.49-1.21-.72-.77-.41-1.17-.6A35.86,35.86,0,0,0,151.63,73.47Z"/><path class="cls-1" d="M163.77,76.57A4.41,4.41,0,0,0,167,79.7a7.43,7.43,0,0,0,1.61-4.41,20.67,20.67,0,0,0-.26-4,14.11,14.11,0,0,0-.43-2c-.19-.67-.39-1.27-.58-1.78s-.36-.91-.49-1.2-.17-.45-.17-.45-.12.16-.3.46a13.54,13.54,0,0,0-.72,1.24A22,22,0,0,0,164,71.74c-.11.41-.21.82-.29,1.24a11.55,11.55,0,0,0-.18,1.2,8.29,8.29,0,0,0,0,1.22A7.58,7.58,0,0,0,163.77,76.57Z"/><path class="cls-1" d="M149.74,67.34a7.18,7.18,0,0,0,1,1,7.93,7.93,0,0,0,1.05.78,5.61,5.61,0,0,0,4.78.81,5.08,5.08,0,0,0-.15-2.41,5.49,5.49,0,0,0-.46-1.06c-.19-.34-.43-.66-.65-1A15.4,15.4,0,0,0,151.43,62a41.23,41.23,0,0,0-4.05-2.52l-1.9-1s0,.23.13.6.26.91.48,1.54a19.79,19.79,0,0,0,2,4.52A17.1,17.1,0,0,0,149.74,67.34Z"/><path class="cls-1" d="M159.16,66.66a4.71,4.71,0,0,0,1.53,1.78,6.45,6.45,0,0,0,3-3.74,7.2,7.2,0,0,0,.29-1.13L164,63c0-.19.06-.38.09-.58a15,15,0,0,0,.09-2.31,35.71,35.71,0,0,0-.37-3.92c-.09-.51-.19-.93-.25-1.22l-.08-.46-.39.38a13.29,13.29,0,0,0-.93,1.06,19.87,19.87,0,0,0-2.42,3.71,11.21,11.21,0,0,0-1.16,4.77,4.39,4.39,0,0,0,.16,1.16A5.08,5.08,0,0,0,159.16,66.66Z"/><path class="cls-1" d="M146.7,53a10.16,10.16,0,0,0,.72,1.15,10.68,10.68,0,0,0,.88,1,5.64,5.64,0,0,0,4.56,1.73,5,5,0,0,0,.31-2.38,5.43,5.43,0,0,0-.25-1.13,8.68,8.68,0,0,0-.41-1.11,12,12,0,0,0-1.33-2.14c-.28-.34-.55-.69-.82-1s-.57-.67-.86-1c-1.18-1.3-2.49-2.5-3.4-3.39s-1.6-1.45-1.6-1.45,0,.91.06,2.27a19.58,19.58,0,0,0,.34,2.31c.08.42.17.85.28,1.3a9.36,9.36,0,0,0,.38,1.32A18.44,18.44,0,0,0,146.7,53Z"/><path class="cls-1" d="M157.17,55.88a6.62,6.62,0,0,0,3.63-3.05,9.63,9.63,0,0,0,.5-1c.16-.35.31-.71.44-1.07a13.43,13.43,0,0,0,.55-2.16c.14-.71.28-1.4.35-2,0-.32.07-.63.09-.92s0-.56.06-.81a12,12,0,0,0,.1-1.64,18.32,18.32,0,0,0-1.62,1c-.24.18-.5.37-.76.58s-.55.45-.81.7a17.92,17.92,0,0,0-1.6,1.72c-.26.32-.51.65-.75,1-.12.17-.23.35-.34.53s-.2.36-.29.54a9.33,9.33,0,0,0-.78,2.28,5.76,5.76,0,0,0-.11,1.16,5.24,5.24,0,0,0,.18,1.12A4.56,4.56,0,0,0,157.17,55.88Z"/><path class="cls-1" d="M150.9,34.08c-.4-.78-.84-1.54-1.26-2.24L148.48,30c-.68-1.09-1.17-1.81-1.17-1.81s-.26.86-.53,2.19c-.1.68-.2,1.47-.26,2.33,0,.43-.06.87-.07,1.33s0,.92.07,1.39a16,16,0,0,0,.44,2.77A11.1,11.1,0,0,0,148,40.63a5.43,5.43,0,0,0,4,2.75,5.33,5.33,0,0,0,.54-1.1,6.4,6.4,0,0,0,.3-1.12,5.91,5.91,0,0,0-.12-2.32,11.59,11.59,0,0,0-.73-2.38C151.7,35.66,151.28,34.85,150.9,34.08Z"/><path class="cls-1" d="M160.65,41A8.86,8.86,0,0,0,162,39.21a12.53,12.53,0,0,0,1.1-1.89c.16-.32.28-.64.43-.94s.28-.61.4-.9c.24-.58.42-1.13.58-1.59a13,13,0,0,0,.51-1.55,17,17,0,0,0-1.84.6,15.8,15.8,0,0,0-3.82,2,9.11,9.11,0,0,0-1,.77c-.3.28-.59.57-.86.87a8.59,8.59,0,0,0-1.34,2,5.53,5.53,0,0,0-.48,2.21,4.24,4.24,0,0,0,.15,1.11,5.23,5.23,0,0,0,.52,1.1A6.9,6.9,0,0,0,160.65,41Z"/><path class="cls-1" d="M155.36,29.31a4.81,4.81,0,0,0,.58-1,5.11,5.11,0,0,0,.34-1.09c.07-.37.1-.77.15-1.16a11.7,11.7,0,0,0-.13-2.48c-.14-.86-.28-1.71-.5-2.57-.44-1.72-.92-3.33-1.34-4.56s-.72-2-.72-2-.12.19-.3.53-.43.83-.7,1.44a21.08,21.08,0,0,0-1.51,4.73,17.51,17.51,0,0,0-.25,2.78,7.8,7.8,0,0,0,.11,1.36,8.8,8.8,0,0,0,.27,1.28,6,6,0,0,0,1.14,2.19,5.58,5.58,0,0,0,2.05,1.49A4.91,4.91,0,0,0,155.36,29.31Z"/><path class="cls-1" d="M169.64,22.78c.16-.24.24-.39.24-.39l-.54,0a12.79,12.79,0,0,0-1.39.12,18.57,18.57,0,0,0-2,.35c-.35.08-.74.17-1.11.28s-.74.25-1.12.41a11.94,11.94,0,0,0-2.2,1.11,8.72,8.72,0,0,0-1.78,1.58,4.24,4.24,0,0,0-.63.95,5.42,5.42,0,0,0-.39,1,4.56,4.56,0,0,0-.14,1.11,4.61,4.61,0,0,0,.22,1.18,6.6,6.6,0,0,0,2.48-.06,7.93,7.93,0,0,0,2.14-.83,7.16,7.16,0,0,0,.93-.62l.43-.34.43-.36a12.37,12.37,0,0,0,1.52-1.56A17.08,17.08,0,0,0,168,25.19c.09-.13.17-.26.26-.38s.18-.24.27-.36l.46-.66C169.29,23.38,169.5,23,169.64,22.78Z"/><path class="cls-1" d="M160.27,18.23a5,5,0,0,0,1.79-1.52,5.83,5.83,0,0,0,1-2.06,16.7,16.7,0,0,0,.52-5c0-.44,0-.88-.05-1.31s0-.83-.07-1.22c-.06-.8-.14-1.55-.21-2.19-.13-1.26-.27-2.1-.27-2.1l-.4.44a15.44,15.44,0,0,0-1,1.24,20.48,20.48,0,0,0-1.27,1.86,21.32,21.32,0,0,0-1.2,2.34,15.23,15.23,0,0,0-.86,2.6,10.28,10.28,0,0,0-.24,2.62A5.65,5.65,0,0,0,160.27,18.23Z"/><path class="cls-1" d="M172.92,17.31A20.13,20.13,0,0,0,174.53,16c.49-.42.93-.82,1.28-1.17s.66-.65.86-.86.31-.33.31-.33a16.63,16.63,0,0,0-1.92-.28,17.63,17.63,0,0,0-2-.08,14.82,14.82,0,0,0-2.35.18,10.22,10.22,0,0,0-4.49,1.71,5.61,5.61,0,0,0-1.47,1.68,4.47,4.47,0,0,0-.46,2.24,6.7,6.7,0,0,0,4.7.25,9.74,9.74,0,0,0,2.07-.87A15.27,15.27,0,0,0,172.92,17.31Z"/><path class="cls-1" d="M169.7,85.74c4.76,4,10.56,6.65,16.26,9,4.66,1.88,10.64,5,16.73,7.83a123.11,123.11,0,0,1-15.22,3.83c-.57.09,2.35,3.06,2.9,2.9,5-1.52,10.16-3.36,15.21-5.4,5.51,2.51,10.95,4.65,15.43,5.4.57.1,2.32-2.9,1.76-3a110.29,110.29,0,0,1-14.32-3.58A261.59,261.59,0,0,0,232.1,91.26a39.33,39.33,0,0,0,17.15-17.93,61.19,61.19,0,0,0,6.33-23.4c.5-11.19-3.26-22.17-9.09-31.61a73,73,0,0,0-5.73-8.07,4.66,4.66,0,0,0,.08-2.06,5.51,5.51,0,0,0-.9-2.17,10.54,10.54,0,0,0-3.79-3.26A17.6,17.6,0,0,0,232,1.16c-.58-.14-1-.22-1.38-.27l-.39,0h-.12l0,.12c0,.07.09.19.17.33.15.3.37.72.64,1.23a41.85,41.85,0,0,0,2.18,3.64A18.59,18.59,0,0,0,234.57,8a9,9,0,0,0,.81.82,6.6,6.6,0,0,0,.88.72,6,6,0,0,0,2,.95,5.61,5.61,0,0,0,1.76.16,69.08,69.08,0,0,1,9.92,16,52.24,52.24,0,0,1,4.76,22.75c-.2,8.54-3,17.22-6.88,24.8a36.36,36.36,0,0,1-12.88,14.32,107.9,107.9,0,0,1-15.82,8c-4.06,1.76-8.88,3.56-13.76,5.16a178,178,0,0,1-29-12.5,38.62,38.62,0,0,1-10.51-8.43A42.74,42.74,0,0,1,159.08,69c-3.26-7.95-5.32-16.17-4.81-24.81.59-10.07,4.54-19.7,10-28a72.82,72.82,0,0,1,4.62-6.28,6,6,0,0,0,1.7-.17,6.34,6.34,0,0,0,2-.95,8.19,8.19,0,0,0,.87-.71,10.7,10.7,0,0,0,.82-.83,18.93,18.93,0,0,0,1.44-1.87c.88-1.3,1.62-2.63,2.17-3.64.27-.51.49-.93.64-1.23s.13-.26.17-.34L178.8,0h-.12l-.38,0c-.34,0-.82.13-1.39.27a17.77,17.77,0,0,0-4.17,1.6A10.62,10.62,0,0,0,169,5.17a5.48,5.48,0,0,0-.9,2.17,4.63,4.63,0,0,0,.07,2,70,70,0,0,0-9.6,15.27,54.67,54.67,0,0,0-5.22,21c-.32,8.36,2,16.38,5.1,24A40.2,40.2,0,0,0,169.7,85.74Z"/><path class="cls-1" d="M230.92,100.93a22.92,22.92,0,0,0,4.94-1.49c1.26-.55,2-1,2-1s-.8-.32-2-.73-2.9-.95-4.65-1.38a19.61,19.61,0,0,0-5.24-.66,8.11,8.11,0,0,0-2.41.46,8.54,8.54,0,0,0-2.28,1.29,5.18,5.18,0,0,0,3.84,3.36A13.27,13.27,0,0,0,230.92,100.93Z"/><path class="cls-1" d="M221.52,94.66a5.36,5.36,0,0,0,2.14-1,10.29,10.29,0,0,0,3-4,18.17,18.17,0,0,0,1.26-4.26c.09-.59.15-1.08.18-1.42s0-.54,0-.54-.6.33-1.49.88a33.71,33.71,0,0,0-3.21,2.27,14,14,0,0,0-3.05,3.29,7.89,7.89,0,0,0-1.23,4.53A4.08,4.08,0,0,0,221.52,94.66Z"/><path class="cls-1" d="M243.79,88a20.35,20.35,0,0,0-5.23.67,6.13,6.13,0,0,0-3.76,2.87,5.53,5.53,0,0,0,4.38,2.22,12.13,12.13,0,0,0,5.46-1.23,20.6,20.6,0,0,0,4.51-2.83c.57-.46,1-.89,1.34-1.18L251,88l-2.25,0C247.38,88,245.59,87.93,243.79,88Z"/><path class="cls-1" d="M231.76,88.85a4.84,4.84,0,0,0,4.1-2,9.94,9.94,0,0,0,1.82-4.57,14.59,14.59,0,0,0,0-4.36,13.07,13.07,0,0,0-.28-1.36c-.08-.32-.14-.5-.14-.5s-.11.1-.29.3-.46.49-.77.85c-.64.72-1.5,1.72-2.36,2.89a14.92,14.92,0,0,0-2.17,4A6.7,6.7,0,0,0,231.76,88.85Z"/><path class="cls-1" d="M255.46,79.89l.53-.66.25-.34.2-.27c.26-.36.5-.71.72-1.06.46-.69.85-1.35,1.17-1.92s.56-1,.73-1.39.24-.55.24-.55-.8.23-2.05.62a36.31,36.31,0,0,0-4.41,1.7c-.4.19-.79.38-1.18.6s-.82.47-1.21.71-.78.47-1.14.72-.73.49-1.05.75a6.86,6.86,0,0,0-2.71,4,5.2,5.2,0,0,0,4.92.72A11.48,11.48,0,0,0,255.46,79.89Z"/><path class="cls-1" d="M244.92,72.59a22,22,0,0,0-1.67-4.14c-.27-.53-.52-.94-.71-1.24l-.31-.46-.17.45c-.12.29-.3.7-.49,1.2s-.39,1.11-.57,1.77a13.3,13.3,0,0,0-.44,2,21.5,21.5,0,0,0-.26,4,7.43,7.43,0,0,0,1.61,4.41,4.41,4.41,0,0,0,3.21-3.14,6.39,6.39,0,0,0,.24-1.17,8.15,8.15,0,0,0,0-1.21,11.55,11.55,0,0,0-.17-1.2C245.13,73.41,245,73,244.92,72.59Z"/><path class="cls-1" d="M263.28,59.9c.09-.38.13-.6.13-.6l-1.9,1a40,40,0,0,0-4,2.52,15.05,15.05,0,0,0-3.84,3.43,10.64,10.64,0,0,0-.66,1,5.49,5.49,0,0,0-.46,1.06,5.08,5.08,0,0,0-.15,2.41,5.63,5.63,0,0,0,4.79-.81,9.5,9.5,0,0,0,1.05-.78,8.6,8.6,0,0,0,1-1A19.2,19.2,0,0,0,260.77,66a20.36,20.36,0,0,0,2-4.52C263,60.81,263.18,60.27,263.28,59.9Z"/><path class="cls-1" d="M248.2,69.29a4.71,4.71,0,0,0,1.53-1.78,5.08,5.08,0,0,0,.39-1.07,4.51,4.51,0,0,0,.16-1.16,11.21,11.21,0,0,0-1.16-4.77,20.94,20.94,0,0,0-2.41-3.71c-.37-.45-.69-.81-.94-1.06l-.39-.38-.08.46c-.06.29-.16.71-.24,1.22a33.39,33.39,0,0,0-.38,3.92,13.88,13.88,0,0,0,.1,2.31c0,.19.06.39.08.58l.09.57a8.51,8.51,0,0,0,.29,1.13A6.48,6.48,0,0,0,248.2,69.29Z"/><path class="cls-1" d="M259.4,48.91c-.3.32-.58.66-.86,1l-.83,1a12,12,0,0,0-1.33,2.14,7.7,7.7,0,0,0-.41,1.1,5.67,5.67,0,0,0-.25,1.14,5.09,5.09,0,0,0,.31,2.37A5.63,5.63,0,0,0,260.59,56a10.68,10.68,0,0,0,.88-1,11.14,11.14,0,0,0,.72-1.15,18.44,18.44,0,0,0,1.14-2.56,11.13,11.13,0,0,0,.39-1.33c.1-.44.19-.87.27-1.3a21.63,21.63,0,0,0,.35-2.3c.08-1.37.05-2.26.05-2.26s-.66.55-1.6,1.44S260.58,47.6,259.4,48.91Z"/><path class="cls-1" d="M252.89,54.71a6.08,6.08,0,0,0,.18-1.12,5.79,5.79,0,0,0-.12-1.16,9.33,9.33,0,0,0-.78-2.28l-.28-.54c-.11-.18-.23-.36-.35-.53a10.86,10.86,0,0,0-.75-1,15.69,15.69,0,0,0-1.6-1.72,8.71,8.71,0,0,0-.8-.7c-.27-.21-.53-.41-.77-.58C246.67,44.4,246,44,246,44a15.8,15.8,0,0,0,.09,1.65c0,.25,0,.52.07.81s.05.59.09.91c.07.64.22,1.33.35,2a12.5,12.5,0,0,0,.56,2.16,8.92,8.92,0,0,0,.44,1.07,7.24,7.24,0,0,0,.49,1,6.63,6.63,0,0,0,3.63,3.06A4.74,4.74,0,0,0,252.89,54.71Z"/><path class="cls-1" d="M256.11,39.69A6.08,6.08,0,0,0,256,42a5.66,5.66,0,0,0,.31,1.12,4.82,4.82,0,0,0,.53,1.1,5.43,5.43,0,0,0,4-2.75A10.65,10.65,0,0,0,261.93,39a15.84,15.84,0,0,0,.44-2.77c0-.47.07-.94.07-1.4s0-.89-.07-1.32c-.06-.86-.16-1.65-.25-2.33-.28-1.33-.53-2.19-.53-2.19s-.5.71-1.18,1.81l-1.16,1.89c-.42.7-.85,1.46-1.26,2.24s-.8,1.58-1.14,2.37A12.59,12.59,0,0,0,256.11,39.69Z"/><path class="cls-1" d="M252.68,39.46a8.14,8.14,0,0,0-1.35-2c-.27-.3-.56-.6-.85-.87a11.69,11.69,0,0,0-1-.77,16.48,16.48,0,0,0-3.83-2,17.22,17.22,0,0,0-1.84-.59,14.06,14.06,0,0,0,.52,1.54c.15.47.33,1,.58,1.6.11.29.25.59.39.89s.27.63.43,1a12.53,12.53,0,0,0,1.1,1.89,9.22,9.22,0,0,0,1.38,1.76,6.94,6.94,0,0,0,4.24,2,4.48,4.48,0,0,0,.51-1.09,3.61,3.61,0,0,0,.16-1.12A5.87,5.87,0,0,0,252.68,39.46Z"/><path class="cls-1" d="M255.15,15.28s-.29.79-.72,2-.9,2.84-1.34,4.56c-.21.86-.36,1.71-.49,2.57a11.08,11.08,0,0,0-.13,2.48c0,.39.07.79.14,1.16a5.75,5.75,0,0,0,.34,1.09,4.81,4.81,0,0,0,.58,1,5.29,5.29,0,0,0,.81.92,5.49,5.49,0,0,0,2-1.49,5.93,5.93,0,0,0,1.13-2.19,9.1,9.1,0,0,0,.39-2.64,18.75,18.75,0,0,0-.24-2.78,21.66,21.66,0,0,0-1.52-4.72c-.27-.61-.52-1.11-.7-1.46S255.15,15.28,255.15,15.28Z"/><path class="cls-1" d="M249.76,28.05a4.48,4.48,0,0,0-.63-.95,8.68,8.68,0,0,0-1.78-1.57,12.22,12.22,0,0,0-2.19-1.12c-.38-.14-.76-.28-1.13-.4a10.83,10.83,0,0,0-1.12-.29c-.72-.16-1.39-.27-2-.34s-1-.11-1.39-.12l-.53,0,.23.39c.15.24.35.6.63,1q.19.32.45.66l.27.36.26.38a18.91,18.91,0,0,0,1.28,1.58,12.37,12.37,0,0,0,1.52,1.56l.43.35a4.7,4.7,0,0,0,.43.35,8.27,8.27,0,0,0,.93.61,7.58,7.58,0,0,0,2.15.84,6.35,6.35,0,0,0,2.47.05,4.09,4.09,0,0,0,.22-1.18,4.56,4.56,0,0,0-.14-1.11A5,5,0,0,0,249.76,28.05Z"/><path class="cls-1" d="M248.63,19.07a5.64,5.64,0,0,0,2.22-4.32,9.92,9.92,0,0,0-.24-2.62,15.09,15.09,0,0,0-.85-2.59,21.35,21.35,0,0,0-1.21-2.34c-.42-.72-.88-1.34-1.26-1.87s-.74-.94-1-1.23l-.39-.44s-.14.84-.28,2.1c-.07.64-.15,1.39-.21,2.18,0,.4,0,.81-.07,1.23s0,.87,0,1.3a17.09,17.09,0,0,0,.52,5,5.92,5.92,0,0,0,1,2.06A4.91,4.91,0,0,0,248.63,19.07Z"/><path class="cls-1" d="M242.68,16.05a9.94,9.94,0,0,0-4.49-1.71,14.78,14.78,0,0,0-2.35-.19,19.85,19.85,0,0,0-2,.09c-1.18.12-1.93.28-1.93.28l.31.33c.2.21.51.5.85.86s.81.74,1.3,1.17a20.36,20.36,0,0,0,1.6,1.28,14.79,14.79,0,0,0,1.87,1.18,9.35,9.35,0,0,0,2.08.88,6.67,6.67,0,0,0,4.69-.25,4.36,4.36,0,0,0-.46-2.24A5.61,5.61,0,0,0,242.68,16.05Z"/><path class="cls-1" d="M329.24,96.58a8.23,8.23,0,0,0-2.29-1.3,8.37,8.37,0,0,0-2.4-.46,19.51,19.51,0,0,0-5.24.66c-1.75.43-3.41,1-4.65,1.38s-2,.73-2,.73a20.63,20.63,0,0,0,2.05,1,22.85,22.85,0,0,0,4.95,1.49,13.24,13.24,0,0,0,5.78-.15A5.21,5.21,0,0,0,329.24,96.58Z"/><path class="cls-1" d="M323.91,88.83a10.12,10.12,0,0,0,3,4,5.3,5.3,0,0,0,2.14,1,4.08,4.08,0,0,0,2.4-.23,8,8,0,0,0-1.23-4.53,13.78,13.78,0,0,0-3.05-3.28,31.5,31.5,0,0,0-3.21-2.27c-.89-.56-1.49-.89-1.49-.89a5.39,5.39,0,0,0,0,.55c0,.34.09.82.18,1.41A17.71,17.71,0,0,0,323.91,88.83Z"/><path class="cls-1" d="M311.35,92.9a5.53,5.53,0,0,0,4.38-2.21A6.14,6.14,0,0,0,312,87.81a20.41,20.41,0,0,0-5.23-.67c-1.8-.06-3.59,0-4.93,0l-2.25,0s.17.19.48.49.77.72,1.33,1.18a21.33,21.33,0,0,0,4.52,2.84A12.22,12.22,0,0,0,311.35,92.9Z"/><path class="cls-1" d="M314.67,86a4.82,4.82,0,0,0,4.1,2,6.67,6.67,0,0,0,.11-4.75,14.47,14.47,0,0,0-2.16-4c-.86-1.18-1.73-2.18-2.37-2.9-.31-.36-.58-.65-.77-.84s-.28-.31-.28-.31-.06.18-.15.5-.18.79-.27,1.36a14.6,14.6,0,0,0,0,4.36A9.94,9.94,0,0,0,314.67,86Z"/><path class="cls-1" d="M293.27,73.47c-1.24-.39-2-.62-2-.62l.23.55c.17.34.42.82.74,1.39s.71,1.23,1.16,1.92c.23.35.47.7.73,1.06l.2.28.25.33.53.66a11.43,11.43,0,0,0,5,3.6,5.2,5.2,0,0,0,4.92-.72,6.89,6.89,0,0,0-2.71-4c-.32-.26-.69-.5-1-.75s-.75-.48-1.14-.71-.8-.49-1.21-.72-.78-.41-1.18-.6A35.77,35.77,0,0,0,293.27,73.47Z"/><path class="cls-1" d="M305.41,76.57a4.39,4.39,0,0,0,3.21,3.13,7.49,7.49,0,0,0,1.61-4.41,21.5,21.5,0,0,0-.26-4,14.27,14.27,0,0,0-.44-2c-.18-.67-.39-1.27-.58-1.78s-.36-.91-.48-1.2-.17-.45-.17-.45-.12.16-.31.46a13.82,13.82,0,0,0-.71,1.24,22,22,0,0,0-1.67,4.14c-.12.41-.22.82-.3,1.24a11.55,11.55,0,0,0-.18,1.2,8.29,8.29,0,0,0,0,1.22A6.56,6.56,0,0,0,305.41,76.57Z"/><path class="cls-1" d="M291.37,67.34a7.83,7.83,0,0,0,1,1,9.5,9.5,0,0,0,1.05.78,5.62,5.62,0,0,0,4.79.81,5.22,5.22,0,0,0-.15-2.41,5,5,0,0,0-.47-1.06,9.9,9.9,0,0,0-.65-1A15.22,15.22,0,0,0,293.06,62a40,40,0,0,0-4-2.52l-1.9-1a5.07,5.07,0,0,0,.13.6c.1.38.26.91.47,1.54a20.32,20.32,0,0,0,2,4.52A18,18,0,0,0,291.37,67.34Z"/><path class="cls-1" d="M300.8,66.66a4.6,4.6,0,0,0,1.52,1.78,6.46,6.46,0,0,0,3-3.74,8.48,8.48,0,0,0,.28-1.13,5.21,5.21,0,0,0,.09-.57l.09-.58a13.88,13.88,0,0,0,.1-2.31,38.05,38.05,0,0,0-.38-3.92c-.08-.51-.18-.93-.24-1.22l-.08-.46-.39.38c-.25.25-.57.61-.94,1.06a20.39,20.39,0,0,0-2.41,3.71,11.21,11.21,0,0,0-1.16,4.77,4.39,4.39,0,0,0,.15,1.16A5.73,5.73,0,0,0,300.8,66.66Z"/><path class="cls-1" d="M288.34,53a8.92,8.92,0,0,0,.72,1.15,9.4,9.4,0,0,0,.88,1,5.64,5.64,0,0,0,4.56,1.73,5.28,5.28,0,0,0,.31-2.38,6.16,6.16,0,0,0-.25-1.13,8.73,8.73,0,0,0-.42-1.11,10.93,10.93,0,0,0-1.33-2.14l-.82-1c-.28-.34-.56-.67-.85-1-1.19-1.3-2.5-2.5-3.41-3.39s-1.59-1.45-1.59-1.45,0,.91.05,2.27c.05.67.19,1.46.34,2.31.08.42.18.85.28,1.3a9.42,9.42,0,0,0,.39,1.32A18.44,18.44,0,0,0,288.34,53Z"/><path class="cls-1" d="M298.8,55.88a6.61,6.61,0,0,0,3.64-3.05,8,8,0,0,0,.49-1,8.92,8.92,0,0,0,.44-1.07,13.48,13.48,0,0,0,.56-2.16c.13-.71.28-1.4.35-2,0-.32.06-.63.09-.92s0-.56.06-.81a12.86,12.86,0,0,0,.09-1.64s-.66.37-1.62,1l-.76.58a10.54,10.54,0,0,0-.8.7,16.79,16.79,0,0,0-1.61,1.72c-.26.32-.5.65-.75,1l-.34.53c-.1.18-.19.36-.28.54a9.36,9.36,0,0,0-.79,2.28,6.6,6.6,0,0,0-.11,1.16,5.24,5.24,0,0,0,.18,1.12A4.76,4.76,0,0,0,298.8,55.88Z"/><path class="cls-1" d="M292.54,34.08c-.41-.78-.84-1.54-1.26-2.24s-.84-1.35-1.16-1.89c-.68-1.09-1.18-1.81-1.18-1.81s-.25.86-.52,2.19c-.11.68-.2,1.47-.26,2.33,0,.43-.06.87-.07,1.33s0,.92.07,1.39a16,16,0,0,0,.44,2.77,10.64,10.64,0,0,0,1,2.48,5.47,5.47,0,0,0,4,2.75,4.87,4.87,0,0,0,.54-1.1,6.43,6.43,0,0,0,.31-1.12,6.1,6.1,0,0,0-.12-2.32,11.59,11.59,0,0,0-.73-2.38C293.34,35.66,292.92,34.85,292.54,34.08Z"/><path class="cls-1" d="M302.28,41a8.56,8.56,0,0,0,1.39-1.75,13.44,13.44,0,0,0,1.1-1.89c.16-.32.27-.64.43-.94s.28-.61.39-.9c.25-.58.42-1.13.58-1.59a13,13,0,0,0,.51-1.55,17,17,0,0,0-1.84.6A15.94,15.94,0,0,0,301,35a10.37,10.37,0,0,0-1,.77c-.3.28-.59.57-.86.87a8.59,8.59,0,0,0-1.34,2,5.7,5.7,0,0,0-.47,2.21,3.54,3.54,0,0,0,.15,1.11,5.23,5.23,0,0,0,.52,1.1A6.85,6.85,0,0,0,302.28,41Z"/><path class="cls-1" d="M297,29.31a4.86,4.86,0,0,0,.59-1,5.75,5.75,0,0,0,.34-1.09c.07-.37.1-.77.14-1.16a11.08,11.08,0,0,0-.13-2.48,23.3,23.3,0,0,0-.5-2.57c-.44-1.72-.91-3.33-1.34-4.56s-.71-2-.71-2-.12.19-.3.53-.43.83-.7,1.44a21.58,21.58,0,0,0-1.52,4.73,17.49,17.49,0,0,0-.24,2.78,7.78,7.78,0,0,0,.1,1.36,10.37,10.37,0,0,0,.28,1.28,5.88,5.88,0,0,0,1.14,2.19,5.49,5.49,0,0,0,2.05,1.49A4.84,4.84,0,0,0,297,29.31Z"/><path class="cls-1" d="M311.28,22.78c.15-.24.23-.39.23-.39l-.53,0a12.94,12.94,0,0,0-1.4.12,18.87,18.87,0,0,0-2,.35c-.36.08-.75.17-1.12.28s-.74.25-1.12.41a12.18,12.18,0,0,0-2.19,1.11,9.05,9.05,0,0,0-1.79,1.58,4.2,4.2,0,0,0-.62.95,5.45,5.45,0,0,0-.4,1,4.56,4.56,0,0,0-.14,1.11,4.64,4.64,0,0,0,.23,1.18,6.6,6.6,0,0,0,2.48-.06,7.74,7.74,0,0,0,2.13-.83A7.27,7.27,0,0,0,306,29l.43-.34.43-.36a13.11,13.11,0,0,0,1.52-1.56,18.91,18.91,0,0,0,1.28-1.58c.09-.13.17-.26.26-.38l.26-.36c.17-.23.33-.45.46-.66C310.92,23.38,311.13,23,311.28,22.78Z"/><path class="cls-1" d="M301.9,18.23a4.9,4.9,0,0,0,1.79-1.52,5.83,5.83,0,0,0,1-2.06,16.69,16.69,0,0,0,.53-5c0-.44,0-.88-.05-1.31s-.05-.83-.08-1.22c-.06-.8-.13-1.55-.21-2.19-.13-1.26-.27-2.1-.27-2.1l-.4.44c-.24.29-.6.7-1,1.24A20.53,20.53,0,0,0,302,6.35a19.73,19.73,0,0,0-1.21,2.34,16.12,16.12,0,0,0-.85,2.6,9.86,9.86,0,0,0-.25,2.62A5.68,5.68,0,0,0,301.9,18.23Z"/><path class="cls-1" d="M314.55,17.31A17.09,17.09,0,0,0,316.16,16c.49-.42.94-.82,1.29-1.17s.66-.65.86-.86.31-.33.31-.33a16.61,16.61,0,0,0-1.93-.28,17.45,17.45,0,0,0-2-.08,14.74,14.74,0,0,0-2.35.18,10.17,10.17,0,0,0-4.49,1.71,5.61,5.61,0,0,0-1.47,1.68,4.47,4.47,0,0,0-.46,2.24,6.67,6.67,0,0,0,4.69.25,9.82,9.82,0,0,0,2.08-.87A15.14,15.14,0,0,0,314.55,17.31Z"/><path class="cls-1" d="M311.33,85.74c4.76,4,10.57,6.65,16.26,9,4.67,1.88,10.64,5,16.74,7.83a123.55,123.55,0,0,1-15.22,3.83c-.57.09,2.35,3.06,2.9,2.9,5-1.52,10.16-3.36,15.2-5.4,5.52,2.51,11,4.65,15.44,5.4.56.1,2.32-2.9,1.75-3a110.57,110.57,0,0,1-14.31-3.58,261.35,261.35,0,0,0,23.64-11.41,39.35,39.35,0,0,0,17.16-17.93,61.18,61.18,0,0,0,6.32-23.4c.5-11.19-3.25-22.17-9.08-31.61a71.8,71.8,0,0,0-5.74-8.07,4.67,4.67,0,0,0,.09-2.06,5.51,5.51,0,0,0-.9-2.17,10.66,10.66,0,0,0-3.8-3.26,17.55,17.55,0,0,0-4.16-1.6C373,1,372.56.94,372.23.89l-.38,0h-.12a.67.67,0,0,0,0,.12c0,.07.09.19.16.33.16.3.37.72.65,1.23a41.5,41.5,0,0,0,2.17,3.64A20.19,20.19,0,0,0,376.2,8a9.07,9.07,0,0,0,.82.82,5.94,5.94,0,0,0,.87.72,6.24,6.24,0,0,0,2,.95,5.64,5.64,0,0,0,1.76.16,69.12,69.12,0,0,1,9.93,16,52.37,52.37,0,0,1,4.75,22.75c-.19,8.54-3,17.22-6.87,24.8a36.51,36.51,0,0,1-12.88,14.32,108,108,0,0,1-15.83,8c-4.05,1.76-8.87,3.56-13.75,5.16a178.48,178.48,0,0,1-29-12.5,38.62,38.62,0,0,1-10.51-8.43A43,43,0,0,1,300.71,69c-3.25-7.95-5.31-16.17-4.81-24.81.59-10.07,4.55-19.7,10.06-28a70.66,70.66,0,0,1,4.61-6.28,6,6,0,0,0,1.71-.17,6.29,6.29,0,0,0,2-.95,7.39,7.39,0,0,0,.88-.71,10.58,10.58,0,0,0,.81-.83,17.52,17.52,0,0,0,1.44-1.87c.88-1.3,1.63-2.63,2.18-3.64.27-.51.49-.93.63-1.23l.18-.34a.82.82,0,0,0,0-.11h-.12l-.38,0c-.33,0-.81.13-1.38.27a17.6,17.6,0,0,0-4.17,1.6,10.54,10.54,0,0,0-3.79,3.26,5.48,5.48,0,0,0-.9,2.17,4.48,4.48,0,0,0,.07,2,69.67,69.67,0,0,0-9.6,15.27,54.67,54.67,0,0,0-5.22,21c-.32,8.36,1.95,16.38,5.1,24A40.28,40.28,0,0,0,311.33,85.74Z"/><path class="cls-1" d="M372.55,100.93a22.92,22.92,0,0,0,4.94-1.49c1.27-.55,2.06-1,2.06-1s-.81-.32-2.05-.73-2.89-.95-4.64-1.38a19.61,19.61,0,0,0-5.24-.66,8.11,8.11,0,0,0-2.41.46,8.44,8.44,0,0,0-2.29,1.29,5.2,5.2,0,0,0,3.84,3.36A13.28,13.28,0,0,0,372.55,100.93Z"/><path class="cls-1" d="M363.16,94.66a5.43,5.43,0,0,0,2.14-1,10.29,10.29,0,0,0,3-4,18.1,18.1,0,0,0,1.25-4.26c.1-.59.15-1.08.19-1.42s0-.54,0-.54-.61.33-1.49.88A35,35,0,0,0,365,86.61a14,14,0,0,0-3,3.29,7.81,7.81,0,0,0-1.23,4.53A4.07,4.07,0,0,0,363.16,94.66Z"/><path class="cls-1" d="M385.42,88a20.27,20.27,0,0,0-5.22.67,6.1,6.1,0,0,0-3.76,2.87,5.53,5.53,0,0,0,4.38,2.22,12.09,12.09,0,0,0,5.45-1.23,20.68,20.68,0,0,0,4.52-2.83c.57-.46,1-.89,1.33-1.18l.48-.49-2.24,0C389,88,387.23,87.93,385.42,88Z"/><path class="cls-1" d="M373.39,88.85a4.81,4.81,0,0,0,4.1-2,9.73,9.73,0,0,0,1.82-4.57,14.59,14.59,0,0,0,0-4.36,13.5,13.5,0,0,0-.27-1.36c-.09-.32-.15-.5-.15-.5l-.28.3c-.2.2-.46.49-.77.85-.64.72-1.51,1.72-2.36,2.89a14.92,14.92,0,0,0-2.17,4A6.7,6.7,0,0,0,373.39,88.85Z"/><path class="cls-1" d="M397.1,79.89l.53-.66.25-.34.2-.27c.25-.36.5-.71.72-1.06.45-.69.84-1.35,1.17-1.92s.56-1,.73-1.39.23-.55.23-.55-.8.23-2,.62a36.39,36.39,0,0,0-4.42,1.7c-.4.19-.78.38-1.17.6s-.82.47-1.21.71-.78.47-1.15.72-.72.49-1.05.75a6.9,6.9,0,0,0-2.71,4,5.21,5.21,0,0,0,4.92.72A11.51,11.51,0,0,0,397.1,79.89Z"/><path class="cls-1" d="M386.56,72.59a22.7,22.7,0,0,0-1.67-4.14c-.28-.53-.52-.94-.72-1.24l-.3-.46s-.07.16-.18.45-.29.7-.48,1.2-.39,1.11-.58,1.77a14.54,14.54,0,0,0-.43,2,20.67,20.67,0,0,0-.26,4,7.41,7.41,0,0,0,1.6,4.41,4.44,4.44,0,0,0,3.22-3.14,7.35,7.35,0,0,0,.24-1.17A8.15,8.15,0,0,0,387,75a9.37,9.37,0,0,0-.17-1.2C386.77,73.41,386.67,73,386.56,72.59Z"/><path class="cls-1" d="M404.92,59.9c.09-.38.12-.6.12-.6l-1.89,1a40,40,0,0,0-4,2.52,15.27,15.27,0,0,0-3.85,3.43,10.53,10.53,0,0,0-.65,1,5,5,0,0,0-.47,1.06,5.09,5.09,0,0,0-.14,2.41,5.61,5.61,0,0,0,4.78-.81,9.6,9.6,0,0,0,1.06-.78,7.75,7.75,0,0,0,1-1A17.1,17.1,0,0,0,402.4,66a20.44,20.44,0,0,0,2-4.52C404.65,60.81,404.81,60.27,404.92,59.9Z"/><path class="cls-1" d="M389.84,69.29a4.71,4.71,0,0,0,1.53-1.78,5.7,5.7,0,0,0,.39-1.07,5,5,0,0,0,.16-1.16,11.21,11.21,0,0,0-1.16-4.77,21.51,21.51,0,0,0-2.41-3.71c-.38-.45-.69-.81-.94-1.06l-.39-.38s0,.17-.08.46-.16.71-.25,1.22a38.34,38.34,0,0,0-.38,3.92,12.9,12.9,0,0,0,.11,2.31c0,.19.05.39.08.58s.06.38.09.57a8.48,8.48,0,0,0,.28,1.13A6.46,6.46,0,0,0,389.84,69.29Z"/><path class="cls-1" d="M401,48.91c-.3.32-.59.66-.87,1s-.55.68-.82,1A10.93,10.93,0,0,0,398,53.08a7.7,7.7,0,0,0-.41,1.1,5.06,5.06,0,0,0-.25,1.14,5,5,0,0,0,.31,2.37A5.61,5.61,0,0,0,402.22,56a8.4,8.4,0,0,0,.88-1,11.21,11.21,0,0,0,.73-1.15A18.44,18.44,0,0,0,405,51.27a9.49,9.49,0,0,0,.38-1.33c.11-.44.2-.87.28-1.3a21.4,21.4,0,0,0,.34-2.3c.08-1.37.06-2.26.06-2.26s-.67.55-1.6,1.44S402.21,47.6,401,48.91Z"/><path class="cls-1" d="M394.52,54.71a5.34,5.34,0,0,0,.18-1.12,5.76,5.76,0,0,0-.11-1.16,9.36,9.36,0,0,0-.79-2.28c-.08-.18-.18-.36-.28-.54a6,6,0,0,0-.34-.53c-.24-.35-.49-.69-.75-1a17.92,17.92,0,0,0-1.6-1.72,10.39,10.39,0,0,0-.81-.7c-.26-.21-.52-.41-.76-.58-1-.68-1.63-1.06-1.63-1.06a14.55,14.55,0,0,0,.1,1.65c0,.25,0,.52.07.81s.05.59.09.91c.07.64.21,1.33.35,2a13.43,13.43,0,0,0,.55,2.16,10.94,10.94,0,0,0,.44,1.07,8.62,8.62,0,0,0,.5,1,6.57,6.57,0,0,0,3.63,3.06A4.62,4.62,0,0,0,394.52,54.71Z"/><path class="cls-1" d="M397.75,39.69a6.08,6.08,0,0,0-.11,2.32,5.63,5.63,0,0,0,.3,1.12,5.33,5.33,0,0,0,.54,1.1,5.45,5.45,0,0,0,4-2.75A10.65,10.65,0,0,0,403.57,39a15.84,15.84,0,0,0,.44-2.77c0-.47.06-.94.07-1.4s0-.89-.07-1.32c-.07-.86-.16-1.65-.26-2.33-.27-1.33-.53-2.19-.53-2.19s-.49.71-1.17,1.81c-.34.54-.73,1.18-1.16,1.89s-.86,1.46-1.26,2.24-.81,1.58-1.14,2.37A12.59,12.59,0,0,0,397.75,39.69Z"/><path class="cls-1" d="M394.31,39.46a8.38,8.38,0,0,0-1.34-2,11.77,11.77,0,0,0-.86-.87,10.24,10.24,0,0,0-1-.77,16.43,16.43,0,0,0-3.82-2,18.11,18.11,0,0,0-1.84-.59,12.56,12.56,0,0,0,.51,1.54c.16.47.33,1,.58,1.6.12.29.25.59.4.89s.27.63.43,1a12.46,12.46,0,0,0,1.09,1.89,9.7,9.7,0,0,0,1.39,1.76,6.91,6.91,0,0,0,4.24,2,4.89,4.89,0,0,0,.51-1.09,3.94,3.94,0,0,0,.16-1.12A5.7,5.7,0,0,0,394.31,39.46Z"/><path class="cls-1" d="M396.79,15.28s-.3.79-.72,2-.9,2.84-1.34,4.56a25.88,25.88,0,0,0-.5,2.57,11.08,11.08,0,0,0-.13,2.48,10.8,10.8,0,0,0,.15,1.16,4.6,4.6,0,0,0,.34,1.09,4.81,4.81,0,0,0,.58,1,5.67,5.67,0,0,0,.8.92,5.41,5.41,0,0,0,2-1.49,5.81,5.81,0,0,0,1.14-2.19,9.1,9.1,0,0,0,.39-2.64A18.77,18.77,0,0,0,399.3,22a20.63,20.63,0,0,0-1.52-4.72c-.27-.61-.51-1.11-.69-1.46S396.79,15.28,396.79,15.28Z"/><path class="cls-1" d="M391.4,28.05a4.48,4.48,0,0,0-.63-.95A9,9,0,0,0,389,25.53a11.9,11.9,0,0,0-2.19-1.12c-.37-.14-.75-.28-1.12-.4s-.76-.21-1.12-.29c-.72-.16-1.4-.27-2-.34s-1.05-.11-1.39-.12l-.54,0,.24.39c.15.24.34.6.62,1,.14.21.29.43.46.66l.27.36.26.38a16.91,16.91,0,0,0,1.27,1.58,13.93,13.93,0,0,0,1.52,1.56l.43.35c.15.13.29.24.44.35a8.28,8.28,0,0,0,3.07,1.45,6.4,6.4,0,0,0,2.48.05,4.9,4.9,0,0,0,.22-1.18,4.56,4.56,0,0,0-.14-1.11A5.68,5.68,0,0,0,391.4,28.05Z"/><path class="cls-1" d="M390.26,19.07a5.62,5.62,0,0,0,2.23-4.32,10.84,10.84,0,0,0-.24-2.62,14.3,14.3,0,0,0-.86-2.59,19.73,19.73,0,0,0-1.21-2.34,18.88,18.88,0,0,0-1.26-1.87,14.36,14.36,0,0,0-1-1.23l-.39-.44s-.14.84-.27,2.1c-.07.64-.15,1.39-.21,2.18,0,.4-.06.81-.07,1.23s-.05.87-.05,1.3a16.76,16.76,0,0,0,.52,5,6.08,6.08,0,0,0,1,2.06A5.08,5.08,0,0,0,390.26,19.07Z"/><path class="cls-1" d="M384.31,16.05a9.89,9.89,0,0,0-4.49-1.71,14.65,14.65,0,0,0-2.34-.19,20.05,20.05,0,0,0-2,.09c-1.17.12-1.92.28-1.92.28s.1.12.3.33.51.5.86.86.81.74,1.29,1.17,1,.86,1.61,1.28a14.11,14.11,0,0,0,1.87,1.18,9.48,9.48,0,0,0,2.07.88,6.7,6.7,0,0,0,4.7-.25,4.47,4.47,0,0,0-.46-2.24A5.51,5.51,0,0,0,384.31,16.05Z"/><path class="cls-1" d="M473.74,96.58a7.8,7.8,0,0,0-4.7-1.76,19.61,19.61,0,0,0-5.24.66c-1.74.43-3.4,1-4.64,1.38s-2.05.73-2.05.73a20.24,20.24,0,0,0,2.06,1,22.92,22.92,0,0,0,4.94,1.49,13.28,13.28,0,0,0,5.79-.15A5.21,5.21,0,0,0,473.74,96.58Z"/><path class="cls-1" d="M468.41,88.83a10,10,0,0,0,3,4,5.24,5.24,0,0,0,2.14,1,4.08,4.08,0,0,0,2.4-.23,8,8,0,0,0-1.24-4.53,13.54,13.54,0,0,0-3-3.28,30.44,30.44,0,0,0-3.22-2.27c-.88-.56-1.49-.89-1.49-.89s0,.2,0,.55.09.82.19,1.41A17.71,17.71,0,0,0,468.41,88.83Z"/><path class="cls-1" d="M455.84,92.9a5.55,5.55,0,0,0,4.39-2.21,6.13,6.13,0,0,0-3.77-2.88,20.27,20.27,0,0,0-5.22-.67c-1.8-.06-3.59,0-4.94,0l-2.24,0s.17.19.48.49.77.72,1.33,1.18a21.07,21.07,0,0,0,4.52,2.84A12.21,12.21,0,0,0,455.84,92.9Z"/><path class="cls-1" d="M459.17,86a4.81,4.81,0,0,0,4.1,2,6.67,6.67,0,0,0,.11-4.75,14.77,14.77,0,0,0-2.17-4,36.23,36.23,0,0,0-2.36-2.9c-.31-.36-.58-.65-.77-.84l-.29-.31s-.06.18-.14.5a13.5,13.5,0,0,0-.27,1.36,14.6,14.6,0,0,0,0,4.36A9.83,9.83,0,0,0,459.17,86Z"/><path class="cls-1" d="M437.77,73.47c-1.24-.39-2-.62-2-.62s.07.2.23.55.42.82.74,1.39.7,1.23,1.16,1.92c.23.35.47.7.72,1.06l.21.28.25.33.53.66a11.37,11.37,0,0,0,5,3.6,5.2,5.2,0,0,0,4.92-.72,6.93,6.93,0,0,0-2.71-4c-.33-.26-.69-.5-1-.75s-.75-.48-1.15-.71-.79-.49-1.2-.72-.78-.41-1.18-.6A36.39,36.39,0,0,0,437.77,73.47Z"/><path class="cls-1" d="M449.9,76.57a4.41,4.41,0,0,0,3.21,3.13,7.44,7.44,0,0,0,1.62-4.41,20.62,20.62,0,0,0-.27-4,14.11,14.11,0,0,0-.43-2c-.19-.67-.39-1.27-.58-1.78s-.36-.91-.48-1.2l-.17-.45s-.12.16-.31.46-.44.72-.72,1.24a22,22,0,0,0-1.66,4.14c-.12.41-.22.82-.3,1.24a11.55,11.55,0,0,0-.18,1.2,9.94,9.94,0,0,0,0,1.22A7.58,7.58,0,0,0,449.9,76.57Z"/><path class="cls-1" d="M435.87,67.34a7.83,7.83,0,0,0,1,1,9.5,9.5,0,0,0,1.05.78,5.61,5.61,0,0,0,4.78.81,5.09,5.09,0,0,0-.14-2.41,5.53,5.53,0,0,0-.47-1.06c-.19-.34-.43-.66-.65-1A15.4,15.4,0,0,0,437.56,62a40,40,0,0,0-4-2.52l-1.9-1a5.07,5.07,0,0,0,.13.6c.1.38.25.91.47,1.54a20.24,20.24,0,0,0,2,4.52A18.09,18.09,0,0,0,435.87,67.34Z"/><path class="cls-1" d="M445.29,66.66a4.71,4.71,0,0,0,1.53,1.78,6.5,6.5,0,0,0,3-3.74,8.48,8.48,0,0,0,.28-1.13,5.21,5.21,0,0,0,.09-.57l.09-.58a15,15,0,0,0,.1-2.31,38.05,38.05,0,0,0-.38-3.92c-.09-.51-.18-.93-.25-1.22l-.08-.46-.38.38a13.1,13.1,0,0,0-.94,1.06,19.88,19.88,0,0,0-2.41,3.71,11.06,11.06,0,0,0-1.16,4.77,4.39,4.39,0,0,0,.15,1.16A5.08,5.08,0,0,0,445.29,66.66Z"/><path class="cls-1" d="M432.83,53a10.22,10.22,0,0,0,.73,1.15,8.4,8.4,0,0,0,.88,1A5.6,5.6,0,0,0,439,56.85a5,5,0,0,0,.31-2.38,5.43,5.43,0,0,0-.25-1.13,7.4,7.4,0,0,0-.41-1.11,11.42,11.42,0,0,0-1.33-2.14c-.28-.34-.55-.69-.82-1s-.57-.67-.86-1c-1.18-1.3-2.49-2.5-3.4-3.39s-1.6-1.45-1.6-1.45,0,.91.06,2.27c.05.67.19,1.46.34,2.31.08.42.17.85.28,1.3a9.36,9.36,0,0,0,.38,1.32A18.44,18.44,0,0,0,432.83,53Z"/><path class="cls-1" d="M443.3,55.88a6.58,6.58,0,0,0,3.63-3.05,8,8,0,0,0,.5-1,10.94,10.94,0,0,0,.44-1.07,13.43,13.43,0,0,0,.55-2.16c.14-.71.29-1.4.36-2,0-.32.06-.63.08-.92s0-.56.07-.81a12.86,12.86,0,0,0,.09-1.64,18.32,18.32,0,0,0-1.62,1l-.76.58c-.27.22-.55.45-.81.7a17.92,17.92,0,0,0-1.6,1.72c-.26.32-.51.65-.75,1l-.34.53c-.1.18-.2.36-.28.54a9.36,9.36,0,0,0-.79,2.28,6.6,6.6,0,0,0-.11,1.16,5.24,5.24,0,0,0,.18,1.12A4.56,4.56,0,0,0,443.3,55.88Z"/><path class="cls-1" d="M437,34.08c-.4-.78-.83-1.54-1.26-2.24L434.61,30c-.68-1.09-1.17-1.81-1.17-1.81s-.26.86-.53,2.19c-.1.68-.19,1.47-.26,2.33,0,.43-.06.87-.07,1.33s0,.92.07,1.39a17,17,0,0,0,.44,2.77,11.1,11.1,0,0,0,1.06,2.48,5.47,5.47,0,0,0,4,2.75,5.33,5.33,0,0,0,.54-1.1,5.63,5.63,0,0,0,.3-1.12,5.9,5.9,0,0,0-.11-2.32,13,13,0,0,0-.73-2.38C437.83,35.66,437.42,34.85,437,34.08Z"/><path class="cls-1" d="M446.78,41a8.91,8.91,0,0,0,1.39-1.75,13.44,13.44,0,0,0,1.1-1.89c.15-.32.27-.64.42-.94s.28-.61.4-.9c.25-.58.42-1.13.58-1.59a13,13,0,0,0,.51-1.55,17,17,0,0,0-1.84.6,16.18,16.18,0,0,0-3.82,2,10.24,10.24,0,0,0-1,.77c-.3.28-.59.57-.86.87a8.59,8.59,0,0,0-1.34,2,5.71,5.71,0,0,0-.48,2.21,3.87,3.87,0,0,0,.16,1.11,4.77,4.77,0,0,0,.52,1.1A6.88,6.88,0,0,0,446.78,41Z"/><path class="cls-1" d="M441.49,29.31a4.81,4.81,0,0,0,.58-1,4.6,4.6,0,0,0,.34-1.09,10.8,10.8,0,0,0,.15-1.16,11.7,11.7,0,0,0-.13-2.48,25.88,25.88,0,0,0-.5-2.57c-.44-1.72-.92-3.33-1.34-4.56s-.72-2-.72-2l-.3.53c-.18.34-.42.83-.69,1.44a21.06,21.06,0,0,0-1.52,4.73,17.51,17.51,0,0,0-.25,2.78,7.8,7.8,0,0,0,.11,1.36,7.66,7.66,0,0,0,.28,1.28,5.88,5.88,0,0,0,1.14,2.19,5.46,5.46,0,0,0,2,1.49A4.91,4.91,0,0,0,441.49,29.31Z"/><path class="cls-1" d="M455.77,22.78c.16-.24.24-.39.24-.39l-.53,0a12.94,12.94,0,0,0-1.4.12,18.87,18.87,0,0,0-2,.35c-.36.08-.75.17-1.12.28s-.74.25-1.12.41a12.26,12.26,0,0,0-2.2,1.11,9,9,0,0,0-1.78,1.58,4.61,4.61,0,0,0-.63.95,6.18,6.18,0,0,0-.39,1,4.56,4.56,0,0,0-.14,1.11,5.09,5.09,0,0,0,.22,1.18,6.66,6.66,0,0,0,2.49-.06,7.86,7.86,0,0,0,2.13-.83,6.54,6.54,0,0,0,.93-.62,5.38,5.38,0,0,0,.43-.34c.15-.12.3-.24.43-.36a13.21,13.21,0,0,0,1.53-1.56,18.71,18.71,0,0,0,1.27-1.58l.26-.38c.1-.12.18-.24.27-.36s.32-.45.46-.66C455.42,23.38,455.63,23,455.77,22.78Z"/><path class="cls-1" d="M446.4,18.23a5,5,0,0,0,1.79-1.52,5.83,5.83,0,0,0,1-2.06,16.7,16.7,0,0,0,.52-5c0-.44,0-.88-.05-1.31s0-.83-.07-1.22c-.06-.8-.14-1.55-.21-2.19-.13-1.26-.27-2.1-.27-2.1l-.4.44a15.44,15.44,0,0,0-1,1.24c-.39.53-.84,1.14-1.27,1.86a21.32,21.32,0,0,0-1.2,2.34,15.23,15.23,0,0,0-.86,2.6,10.28,10.28,0,0,0-.24,2.62A5.65,5.65,0,0,0,446.4,18.23Z"/><path class="cls-1" d="M459.05,17.31A18.48,18.48,0,0,0,460.66,16c.49-.42.93-.82,1.29-1.17l.86-.86a3.82,3.82,0,0,0,.3-.33,16.63,16.63,0,0,0-1.92-.28,17.53,17.53,0,0,0-2-.08,14.61,14.61,0,0,0-2.34.18,10.13,10.13,0,0,0-4.49,1.71,5.47,5.47,0,0,0-1.47,1.68,4.37,4.37,0,0,0-.47,2.24,6.7,6.7,0,0,0,4.7.25,9.74,9.74,0,0,0,2.07-.87A15.27,15.27,0,0,0,459.05,17.31Z"/><path class="cls-1" d="M455.83,85.74c4.76,4,10.57,6.65,16.26,9,4.66,1.88,10.64,5,16.73,7.83a122.67,122.67,0,0,1-15.22,3.83c-.57.09,2.36,3.06,2.91,2.9,5-1.52,10.16-3.36,15.2-5.4,5.51,2.51,11,4.65,15.44,5.4.56.1,2.31-2.9,1.75-3a109.77,109.77,0,0,1-14.31-3.58,261.35,261.35,0,0,0,23.64-11.41,39.33,39.33,0,0,0,17.15-17.93,61,61,0,0,0,6.33-23.4c.5-11.19-3.26-22.17-9.09-31.61a70.45,70.45,0,0,0-5.73-8.07A4.67,4.67,0,0,0,527,8.19,5.53,5.53,0,0,0,526.07,6a10.54,10.54,0,0,0-3.79-3.26,17.71,17.71,0,0,0-4.16-1.6c-.58-.14-1.06-.22-1.39-.27l-.38,0h-.13l0,.12a3.15,3.15,0,0,1,.17.33c.15.3.37.72.64,1.23.55,1,1.3,2.34,2.18,3.64A18.59,18.59,0,0,0,520.7,8a9.07,9.07,0,0,0,.82.82,5.94,5.94,0,0,0,.87.72,6.24,6.24,0,0,0,2,.95,5.61,5.61,0,0,0,1.76.16,69.12,69.12,0,0,1,9.93,16,52.37,52.37,0,0,1,4.75,22.75c-.2,8.54-3.05,17.22-6.88,24.8a36.41,36.41,0,0,1-12.87,14.32,108.51,108.51,0,0,1-15.83,8c-4.06,1.76-8.87,3.56-13.76,5.16a178.73,178.73,0,0,1-29-12.5A38.62,38.62,0,0,1,452,80.74,42.74,42.74,0,0,1,445.21,69C442,61,439.89,52.82,440.4,44.18c.59-10.07,4.54-19.7,10.05-28a72.82,72.82,0,0,1,4.62-6.28,5.92,5.92,0,0,0,1.7-.17,6.24,6.24,0,0,0,2-.95,7.29,7.29,0,0,0,.87-.71,10.7,10.7,0,0,0,.82-.83,18.93,18.93,0,0,0,1.44-1.87,41.5,41.5,0,0,0,2.17-3.64c.27-.51.49-.93.64-1.23s.13-.26.17-.34l.05-.11h-.12l-.38,0c-.33,0-.81.13-1.38.27a17.6,17.6,0,0,0-4.17,1.6,10.66,10.66,0,0,0-3.8,3.26,5.79,5.79,0,0,0-.9,2.17,4.63,4.63,0,0,0,.08,2,70.09,70.09,0,0,0-9.61,15.27,54.83,54.83,0,0,0-5.21,21c-.32,8.36,1.95,16.38,5.09,24A40.4,40.4,0,0,0,455.83,85.74Z"/><path class="cls-1" d="M517.05,100.93A22.92,22.92,0,0,0,522,99.44c1.26-.55,2-1,2-1s-.8-.32-2-.73-2.9-.95-4.65-1.38a19.51,19.51,0,0,0-5.24-.66,8,8,0,0,0-2.4.46,8.44,8.44,0,0,0-2.29,1.29,5.2,5.2,0,0,0,3.84,3.36A13.28,13.28,0,0,0,517.05,100.93Z"/><path class="cls-1" d="M507.66,94.66a5.32,5.32,0,0,0,2.13-1,10.31,10.31,0,0,0,3-4A18.1,18.1,0,0,0,514,85.42c.1-.59.15-1.08.19-1.42s0-.54,0-.54-.61.33-1.49.88a33.71,33.71,0,0,0-3.22,2.27,14.24,14.24,0,0,0-3,3.29,8,8,0,0,0-1.23,4.53A4.11,4.11,0,0,0,507.66,94.66Z"/><path class="cls-1" d="M529.92,88a20.41,20.41,0,0,0-5.23.67,6.11,6.11,0,0,0-3.75,2.87,5.52,5.52,0,0,0,4.37,2.22,12.11,12.11,0,0,0,5.46-1.23,20.6,20.6,0,0,0,4.51-2.83c.57-.46,1-.89,1.34-1.18l.48-.49-2.24,0C533.51,88,531.72,87.93,529.92,88Z"/><path class="cls-1" d="M517.89,88.85a4.81,4.81,0,0,0,4.1-2,9.83,9.83,0,0,0,1.82-4.57,14.59,14.59,0,0,0,0-4.36c-.09-.57-.19-1-.27-1.36s-.15-.5-.15-.5-.11.1-.29.3-.46.49-.76.85c-.64.72-1.51,1.72-2.37,2.89a15.18,15.18,0,0,0-2.16,4A6.7,6.7,0,0,0,517.89,88.85Z"/><path class="cls-1" d="M541.59,79.89l.53-.66.25-.34.2-.27c.26-.36.5-.71.73-1.06.45-.69.84-1.35,1.17-1.92s.56-1,.72-1.39a5.8,5.8,0,0,0,.24-.55s-.8.23-2,.62A36.39,36.39,0,0,0,539,76c-.4.19-.79.38-1.18.6s-.82.47-1.2.71-.79.47-1.15.72-.72.49-1.05.75a6.9,6.9,0,0,0-2.71,4,5.2,5.2,0,0,0,4.92.72A11.43,11.43,0,0,0,541.59,79.89Z"/><path class="cls-1" d="M531.05,72.59a22.75,22.75,0,0,0-1.66-4.14c-.28-.53-.52-.94-.72-1.24s-.31-.46-.31-.46l-.17.45c-.12.29-.3.7-.48,1.2s-.4,1.11-.58,1.77a16.45,16.45,0,0,0-.44,2,21.5,21.5,0,0,0-.26,4A7.49,7.49,0,0,0,528,80.55a4.41,4.41,0,0,0,3.21-3.14,6.4,6.4,0,0,0,.25-1.17,8.15,8.15,0,0,0,0-1.21,9.37,9.37,0,0,0-.17-1.2C531.27,73.41,531.16,73,531.05,72.59Z"/><path class="cls-1" d="M549.41,59.9a5.61,5.61,0,0,0,.13-.6l-1.9,1a40,40,0,0,0-4,2.52,15.22,15.22,0,0,0-3.84,3.43,10.64,10.64,0,0,0-.66,1,5.49,5.49,0,0,0-.46,1.06,5.22,5.22,0,0,0-.15,2.41,5.63,5.63,0,0,0,4.79-.81,9.5,9.5,0,0,0,1.05-.78,8.6,8.6,0,0,0,1-1A17.1,17.1,0,0,0,546.9,66a20.92,20.92,0,0,0,2-4.52C549.15,60.81,549.31,60.27,549.41,59.9Z"/><path class="cls-1" d="M534.33,69.29a4.63,4.63,0,0,0,1.53-1.78,5.11,5.11,0,0,0,.4-1.07,4.5,4.5,0,0,0,.15-1.16,11.34,11.34,0,0,0-1.15-4.77,20.93,20.93,0,0,0-2.42-3.71,13.1,13.1,0,0,0-.94-1.06l-.38-.38s0,.17-.09.46-.15.71-.24,1.22a38.34,38.34,0,0,0-.38,3.92,13.88,13.88,0,0,0,.1,2.31l.09.58c0,.19,0,.38.08.57a8.51,8.51,0,0,0,.29,1.13A6.48,6.48,0,0,0,534.33,69.29Z"/><path class="cls-1" d="M545.53,48.91c-.3.32-.58.66-.86,1l-.83,1a11.36,11.36,0,0,0-1.32,2.14,6.66,6.66,0,0,0-.41,1.1,5.08,5.08,0,0,0-.26,1.14,5,5,0,0,0,.32,2.37A5.61,5.61,0,0,0,546.72,56a8.4,8.4,0,0,0,.88-1,9.66,9.66,0,0,0,.72-1.15,17.33,17.33,0,0,0,1.14-2.56,11.13,11.13,0,0,0,.39-1.33c.1-.44.2-.87.28-1.3.15-.84.29-1.63.34-2.3.08-1.37,0-2.26,0-2.26s-.66.55-1.59,1.44S546.71,47.6,545.53,48.91Z"/><path class="cls-1" d="M539,54.71a5.34,5.34,0,0,0,.18-1.12,5.79,5.79,0,0,0-.12-1.16,8.92,8.92,0,0,0-.78-2.28c-.09-.18-.18-.36-.28-.54l-.34-.53c-.24-.35-.49-.69-.75-1a16.79,16.79,0,0,0-1.61-1.72,8.71,8.71,0,0,0-.8-.7l-.76-.58c-1-.68-1.63-1.06-1.63-1.06a14.55,14.55,0,0,0,.1,1.65,6.69,6.69,0,0,1,.06.81c0,.29.05.59.09.91.07.64.22,1.33.36,2a12.45,12.45,0,0,0,.55,2.16,8.92,8.92,0,0,0,.44,1.07,7.3,7.3,0,0,0,.5,1,6.58,6.58,0,0,0,3.62,3.06A4.64,4.64,0,0,0,539,54.71Z"/><path class="cls-1" d="M542.25,39.69a6.3,6.3,0,0,0-.12,2.32,6.43,6.43,0,0,0,.31,1.12,5.33,5.33,0,0,0,.54,1.1,5.45,5.45,0,0,0,4-2.75A11.58,11.58,0,0,0,548.07,39a15.83,15.83,0,0,0,.43-2.77c0-.47.07-.94.07-1.4s0-.89-.07-1.32c-.06-.86-.15-1.65-.25-2.33-.28-1.33-.53-2.19-.53-2.19s-.49.71-1.18,1.81l-1.15,1.89c-.43.7-.86,1.46-1.26,2.24s-.81,1.58-1.14,2.37A11.3,11.3,0,0,0,542.25,39.69Z"/><path class="cls-1" d="M538.81,39.46a8.38,8.38,0,0,0-1.34-2,10.24,10.24,0,0,0-1.83-1.64,16.48,16.48,0,0,0-3.83-2,17.22,17.22,0,0,0-1.84-.59,14.06,14.06,0,0,0,.52,1.54c.15.47.33,1,.58,1.6.11.29.25.59.4.89s.26.63.42,1a12.53,12.53,0,0,0,1.1,1.89,8.9,8.9,0,0,0,1.39,1.76,6.91,6.91,0,0,0,4.24,2,4.89,4.89,0,0,0,.51-1.09,3.92,3.92,0,0,0,.15-1.12A5.69,5.69,0,0,0,538.81,39.46Z"/><path class="cls-1" d="M541.28,15.28s-.29.79-.71,2-.9,2.84-1.35,4.56c-.21.86-.36,1.71-.49,2.57a11.08,11.08,0,0,0-.13,2.48c0,.39.07.79.14,1.16a5.75,5.75,0,0,0,.34,1.09,6.08,6.08,0,0,0,1.39,1.92,5.41,5.41,0,0,0,2-1.49,5.81,5.81,0,0,0,1.14-2.19,12.2,12.2,0,0,0,.29-1.29,10.1,10.1,0,0,0,.1-1.35A18.77,18.77,0,0,0,543.8,22a20.63,20.63,0,0,0-1.52-4.72c-.27-.61-.52-1.11-.69-1.46S541.28,15.28,541.28,15.28Z"/><path class="cls-1" d="M535.89,28.05a4.13,4.13,0,0,0-.63-.95,8.68,8.68,0,0,0-1.78-1.57,12.22,12.22,0,0,0-2.19-1.12l-1.12-.4c-.37-.12-.76-.21-1.12-.29-.73-.16-1.4-.27-2-.34s-1.05-.11-1.39-.12l-.54,0,.24.39c.14.24.34.6.62,1,.14.21.29.43.46.66s.17.24.27.36L527,26a16.91,16.91,0,0,0,1.27,1.58,13.11,13.11,0,0,0,1.52,1.56l.43.35a4.7,4.7,0,0,0,.43.35,8.4,8.4,0,0,0,.94.61,7.41,7.41,0,0,0,2.14.84,6.4,6.4,0,0,0,2.48.05,4.44,4.44,0,0,0,.21-1.18,4.56,4.56,0,0,0-.13-1.11A5.07,5.07,0,0,0,535.89,28.05Z"/><path class="cls-1" d="M534.76,19.07A5.58,5.58,0,0,0,537,14.75a9.92,9.92,0,0,0-.24-2.62,15.09,15.09,0,0,0-.85-2.59,19.73,19.73,0,0,0-1.21-2.34c-.42-.72-.88-1.34-1.26-1.87a14.36,14.36,0,0,0-1-1.23L532,3.66s-.14.84-.27,2.1c-.08.64-.15,1.39-.21,2.18,0,.4-.06.81-.07,1.23s0,.87-.06,1.3a17.09,17.09,0,0,0,.52,5,6.1,6.1,0,0,0,1,2.06A4.91,4.91,0,0,0,534.76,19.07Z"/><path class="cls-1" d="M528.81,16.05a9.89,9.89,0,0,0-4.49-1.71,14.68,14.68,0,0,0-2.35-.19,19.85,19.85,0,0,0-2,.09,19.26,19.26,0,0,0-1.92.28s.1.12.3.33.51.5.86.86.81.74,1.29,1.17,1,.86,1.6,1.28A14.23,14.23,0,0,0,524,19.34a9.08,9.08,0,0,0,2.07.88,6.7,6.7,0,0,0,4.7-.25,4.37,4.37,0,0,0-.47-2.24A5.61,5.61,0,0,0,528.81,16.05Z"/><path class="cls-1" d="M607.85,96.58a8.37,8.37,0,0,0-2.29-1.3,8.5,8.5,0,0,0-2.41-.46,19.56,19.56,0,0,0-5.24.66c-1.75.43-3.41,1-4.65,1.38s-2,.73-2,.73a20.24,20.24,0,0,0,2.06,1,22.58,22.58,0,0,0,4.94,1.49,13.28,13.28,0,0,0,5.79-.15A5.22,5.22,0,0,0,607.85,96.58Z"/><path class="cls-1" d="M602.51,88.83a10.21,10.21,0,0,0,3,4,5.36,5.36,0,0,0,2.14,1,4.12,4.12,0,0,0,2.41-.23,8,8,0,0,0-1.24-4.53,13.78,13.78,0,0,0-3-3.28,29.43,29.43,0,0,0-3.21-2.27c-.89-.56-1.49-.89-1.49-.89a5.39,5.39,0,0,0,0,.55c0,.34.09.82.19,1.41A17.19,17.19,0,0,0,602.51,88.83Z"/><path class="cls-1" d="M590,92.9a5.52,5.52,0,0,0,4.38-2.21,6.08,6.08,0,0,0-3.76-2.88,20.39,20.39,0,0,0-5.22-.67c-1.81-.06-3.6,0-4.94,0l-2.24,0a6.48,6.48,0,0,0,.48.49c.31.29.76.72,1.32,1.18a21.33,21.33,0,0,0,4.52,2.84A12.25,12.25,0,0,0,590,92.9Z"/><path class="cls-1" d="M593.28,86a4.8,4.8,0,0,0,4.1,2,6.61,6.61,0,0,0,.1-4.75,14.47,14.47,0,0,0-2.16-4c-.86-1.18-1.72-2.18-2.36-2.9-.31-.36-.58-.65-.77-.84l-.29-.31s-.06.18-.15.5-.18.79-.27,1.36a14.63,14.63,0,0,0,0,4.36A9.73,9.73,0,0,0,593.28,86Z"/><path class="cls-1" d="M571.87,73.47c-1.24-.39-2-.62-2-.62l.23.55c.17.34.42.82.74,1.39s.71,1.23,1.17,1.92c.22.35.46.7.72,1.06l.2.28.25.33.53.66a11.45,11.45,0,0,0,5,3.6,5.21,5.21,0,0,0,4.92-.72,6.9,6.9,0,0,0-2.72-4c-.32-.26-.68-.5-1-.75s-.75-.48-1.14-.71-.8-.49-1.21-.72-.77-.41-1.17-.6A35.86,35.86,0,0,0,571.87,73.47Z"/><path class="cls-1" d="M584,76.57a4.41,4.41,0,0,0,3.21,3.13,7.43,7.43,0,0,0,1.61-4.41,20.67,20.67,0,0,0-.26-4,14.11,14.11,0,0,0-.43-2c-.19-.67-.4-1.27-.58-1.78s-.37-.91-.49-1.2-.17-.45-.17-.45-.12.16-.3.46a13.54,13.54,0,0,0-.72,1.24,22,22,0,0,0-1.67,4.14c-.11.41-.21.82-.3,1.24a9.37,9.37,0,0,0-.17,1.2,8.29,8.29,0,0,0,0,1.22A6.56,6.56,0,0,0,584,76.57Z"/><path class="cls-1" d="M570,67.34a6.63,6.63,0,0,0,1,1,7.93,7.93,0,0,0,1,.78,5.61,5.61,0,0,0,4.78.81,5.08,5.08,0,0,0-.15-2.41,5.49,5.49,0,0,0-.46-1.06c-.19-.34-.43-.66-.65-1A15.57,15.57,0,0,0,571.67,62a41.23,41.23,0,0,0-4-2.52l-1.9-1s0,.23.13.6.26.91.48,1.54a19.79,19.79,0,0,0,2,4.52A17.1,17.1,0,0,0,570,67.34Z"/><path class="cls-1" d="M579.4,66.66a4.71,4.71,0,0,0,1.53,1.78,6.45,6.45,0,0,0,3-3.74,7.2,7.2,0,0,0,.29-1.13c0-.18.06-.38.09-.57s.05-.38.08-.58a13.88,13.88,0,0,0,.1-2.31,38.36,38.36,0,0,0-.37-3.92c-.09-.51-.19-.93-.25-1.22l-.08-.46-.39.38c-.25.25-.57.61-.94,1.06A20.39,20.39,0,0,0,580,59.66a11.21,11.21,0,0,0-1.16,4.77,4.39,4.39,0,0,0,.16,1.16A5.08,5.08,0,0,0,579.4,66.66Z"/><path class="cls-1" d="M566.94,53a10.16,10.16,0,0,0,.72,1.15,10.68,10.68,0,0,0,.88,1,5.64,5.64,0,0,0,4.56,1.73,5,5,0,0,0,.31-2.38,5.43,5.43,0,0,0-.25-1.13,8.68,8.68,0,0,0-.41-1.11,12,12,0,0,0-1.33-2.14l-.83-1c-.27-.34-.56-.67-.85-1-1.18-1.3-2.5-2.5-3.4-3.39s-1.6-1.45-1.6-1.45,0,.91,0,2.27a22.17,22.17,0,0,0,.35,2.31c.07.42.17.85.28,1.3a9.36,9.36,0,0,0,.38,1.32A18.44,18.44,0,0,0,566.94,53Z"/><path class="cls-1" d="M577.4,55.88A6.61,6.61,0,0,0,581,52.83a9.63,9.63,0,0,0,.5-1c.16-.35.31-.71.44-1.07a13.43,13.43,0,0,0,.55-2.16c.14-.71.28-1.4.35-2,0-.32.07-.63.09-.92s0-.56.06-.81a12,12,0,0,0,.1-1.64,18.32,18.32,0,0,0-1.62,1c-.24.18-.5.37-.76.58a10.69,10.69,0,0,0-.81.7,17.92,17.92,0,0,0-1.6,1.72c-.26.32-.51.65-.75,1-.12.17-.23.35-.34.53s-.2.36-.29.54a9.33,9.33,0,0,0-.78,2.28,5.76,5.76,0,0,0-.11,1.16,5.24,5.24,0,0,0,.18,1.12A4.64,4.64,0,0,0,577.4,55.88Z"/><path class="cls-1" d="M571.14,34.08c-.4-.78-.84-1.54-1.26-2.24L568.72,30c-.68-1.09-1.17-1.81-1.17-1.81s-.26.86-.53,2.19c-.1.68-.2,1.47-.26,2.33,0,.43-.06.87-.07,1.33s0,.92.07,1.39a16,16,0,0,0,.44,2.77,10.65,10.65,0,0,0,1.06,2.48,5.43,5.43,0,0,0,4,2.75,5.89,5.89,0,0,0,.54-1.1,6.4,6.4,0,0,0,.3-1.12,6.1,6.1,0,0,0-.12-2.32,11.59,11.59,0,0,0-.73-2.38C571.94,35.66,571.52,34.85,571.14,34.08Z"/><path class="cls-1" d="M580.89,41a8.86,8.86,0,0,0,1.38-1.75,12.53,12.53,0,0,0,1.1-1.89c.16-.32.28-.64.43-.94s.28-.61.4-.9c.24-.58.42-1.13.58-1.59a11.68,11.68,0,0,0,.5-1.55,17.34,17.34,0,0,0-1.83.6,15.8,15.8,0,0,0-3.82,2,9.11,9.11,0,0,0-1,.77c-.3.28-.59.57-.86.87a9,9,0,0,0-1.35,2,5.7,5.7,0,0,0-.47,2.21,3.54,3.54,0,0,0,.15,1.11,5.23,5.23,0,0,0,.52,1.1A6.9,6.9,0,0,0,580.89,41Z"/><path class="cls-1" d="M575.6,29.31a4.81,4.81,0,0,0,.58-1,5.75,5.75,0,0,0,.34-1.09c.07-.37.1-.77.15-1.16a11.1,11.1,0,0,0-.14-2.48A23.3,23.3,0,0,0,576,21c-.43-1.72-.91-3.33-1.33-4.56s-.72-2-.72-2-.12.19-.3.53-.43.83-.7,1.44a21.08,21.08,0,0,0-1.51,4.73,17.51,17.51,0,0,0-.25,2.78,6.93,6.93,0,0,0,.11,1.36,8.8,8.8,0,0,0,.27,1.28,6,6,0,0,0,1.14,2.19,5.49,5.49,0,0,0,2,1.49A5.29,5.29,0,0,0,575.6,29.31Z"/><path class="cls-1" d="M589.88,22.78c.16-.24.24-.39.24-.39l-.54,0a12.59,12.59,0,0,0-1.39.12,18.57,18.57,0,0,0-2,.35c-.36.08-.74.17-1.11.28s-.75.25-1.12.41a11.94,11.94,0,0,0-2.2,1.11A8.72,8.72,0,0,0,580,26.26a4.24,4.24,0,0,0-.63.95,5.42,5.42,0,0,0-.39,1,4.56,4.56,0,0,0-.14,1.11,4.61,4.61,0,0,0,.22,1.18,6.6,6.6,0,0,0,2.48-.06,7.93,7.93,0,0,0,2.14-.83,7.16,7.16,0,0,0,.93-.62l.43-.34.43-.36A12.37,12.37,0,0,0,587,26.77a17.08,17.08,0,0,0,1.28-1.58c.09-.13.17-.26.26-.38l.27-.36c.16-.23.32-.45.45-.66C589.53,23.38,589.73,23,589.88,22.78Z"/><path class="cls-1" d="M580.5,18.23a5,5,0,0,0,1.8-1.52,5.65,5.65,0,0,0,1-2.06,16.69,16.69,0,0,0,.53-5c0-.44,0-.88-.05-1.31s0-.83-.07-1.22c-.06-.8-.14-1.55-.21-2.19-.13-1.26-.27-2.1-.27-2.1l-.4.44c-.25.29-.6.7-1,1.24s-.84,1.14-1.26,1.86a23.25,23.25,0,0,0-1.21,2.34,16.12,16.12,0,0,0-.85,2.6,10.28,10.28,0,0,0-.24,2.62A5.67,5.67,0,0,0,580.5,18.23Z"/><path class="cls-1" d="M593.15,17.31A18.68,18.68,0,0,0,594.77,16c.49-.42.93-.82,1.28-1.17s.66-.65.86-.86.31-.33.31-.33a16.63,16.63,0,0,0-1.92-.28,17.63,17.63,0,0,0-2-.08,14.74,14.74,0,0,0-2.35.18,10.22,10.22,0,0,0-4.49,1.71A5.61,5.61,0,0,0,585,16.88a4.47,4.47,0,0,0-.46,2.24,6.67,6.67,0,0,0,4.69.25,9.61,9.61,0,0,0,2.08-.87A15.14,15.14,0,0,0,593.15,17.31Z"/><path class="cls-1" d="M589.94,85.74c4.76,4,10.56,6.65,16.26,9,4.66,1.88,10.64,5,16.73,7.83a123.55,123.55,0,0,1-15.22,3.83c-.57.09,2.35,3.06,2.9,2.9,5-1.52,10.16-3.36,15.21-5.4,5.51,2.51,10.95,4.65,15.43,5.4.57.1,2.32-2.9,1.76-3a110.29,110.29,0,0,1-14.32-3.58c8.46-3.55,16.6-7.57,23.65-11.41a39.33,39.33,0,0,0,17.15-17.93,61.19,61.19,0,0,0,6.33-23.4c.5-11.19-3.26-22.17-9.09-31.61A73,73,0,0,0,661,10.25a4.66,4.66,0,0,0,.08-2.06,5.51,5.51,0,0,0-.9-2.17,10.62,10.62,0,0,0-3.79-3.26,17.6,17.6,0,0,0-4.17-1.6c-.58-.14-1.05-.22-1.38-.27l-.39,0h-.12l0,.12c0,.07.09.19.17.33.15.3.37.72.64,1.23a41.85,41.85,0,0,0,2.18,3.64A18.59,18.59,0,0,0,654.81,8a9,9,0,0,0,.81.82,7.22,7.22,0,0,0,.87.72,6.24,6.24,0,0,0,2,.95,5.71,5.71,0,0,0,1.77.16,69.08,69.08,0,0,1,9.92,16,52.38,52.38,0,0,1,4.76,22.75c-.2,8.54-3.05,17.22-6.88,24.8a36.36,36.36,0,0,1-12.88,14.32,107.52,107.52,0,0,1-15.83,8c-4.05,1.76-8.87,3.56-13.75,5.16a178,178,0,0,1-29-12.5,38.47,38.47,0,0,1-10.51-8.43A43,43,0,0,1,579.31,69C576.06,61,574,52.82,574.5,44.18c.59-10.07,4.55-19.7,10.06-28a74.87,74.87,0,0,1,4.61-6.28,6,6,0,0,0,1.71-.17,6.34,6.34,0,0,0,2-.95,8.19,8.19,0,0,0,.87-.71,9.05,9.05,0,0,0,.81-.83A17.61,17.61,0,0,0,596,5.32c.88-1.3,1.62-2.63,2.17-3.64.27-.51.49-.93.64-1.23s.13-.26.17-.34A.82.82,0,0,0,599,0h-.12l-.37,0c-.34,0-.82.13-1.39.27A17.6,17.6,0,0,0,593,1.91a10.62,10.62,0,0,0-3.79,3.26,5.48,5.48,0,0,0-.9,2.17,4.63,4.63,0,0,0,.07,2,69.67,69.67,0,0,0-9.6,15.27,54.67,54.67,0,0,0-5.22,21c-.32,8.36,2,16.38,5.1,24A40.2,40.2,0,0,0,589.94,85.74Z"/><path class="cls-1" d="M651.16,100.93a22.92,22.92,0,0,0,4.94-1.49c1.26-.55,2-1,2-1s-.8-.32-2-.73-2.9-.95-4.65-1.38a19.61,19.61,0,0,0-5.24-.66,8.11,8.11,0,0,0-2.41.46,8.54,8.54,0,0,0-2.28,1.29,5.19,5.19,0,0,0,3.83,3.36A13.32,13.32,0,0,0,651.16,100.93Z"/><path class="cls-1" d="M641.76,94.66a5.36,5.36,0,0,0,2.14-1,10.29,10.29,0,0,0,3-4,17.64,17.64,0,0,0,1.25-4.26c.1-.59.16-1.08.19-1.42s0-.54,0-.54-.6.33-1.49.88a33.71,33.71,0,0,0-3.21,2.27,13.81,13.81,0,0,0-3,3.29,7.89,7.89,0,0,0-1.23,4.53A4.08,4.08,0,0,0,641.76,94.66Z"/><path class="cls-1" d="M664,88a20.35,20.35,0,0,0-5.23.67A6.13,6.13,0,0,0,655,91.53a5.53,5.53,0,0,0,4.38,2.22,12.13,12.13,0,0,0,5.46-1.23,20.6,20.6,0,0,0,4.51-2.83c.57-.46,1-.89,1.34-1.18s.47-.49.47-.49L669,88C667.62,88,665.83,87.93,664,88Z"/><path class="cls-1" d="M652,88.85a4.84,4.84,0,0,0,4.11-2,9.82,9.82,0,0,0,1.81-4.57,14,14,0,0,0,0-4.36,11.16,11.16,0,0,0-.27-1.36,4.6,4.6,0,0,0-.15-.5l-.28.3c-.19.2-.46.49-.77.85-.64.72-1.5,1.72-2.36,2.89a14.92,14.92,0,0,0-2.17,4A6.75,6.75,0,0,0,652,88.85Z"/><path class="cls-1" d="M675.7,79.89l.53-.66.25-.34.2-.27c.26-.36.5-.71.72-1.06.45-.69.85-1.35,1.17-1.92s.56-1,.73-1.39.24-.55.24-.55-.8.23-2,.62a37,37,0,0,0-4.42,1.7c-.39.19-.78.38-1.17.6s-.82.47-1.21.71-.78.47-1.14.72-.73.49-1,.75a6.87,6.87,0,0,0-2.72,4,5.22,5.22,0,0,0,4.93.72A11.48,11.48,0,0,0,675.7,79.89Z"/><path class="cls-1" d="M665.16,72.59a22,22,0,0,0-1.67-4.14c-.28-.53-.52-.94-.72-1.24l-.3-.46s-.07.16-.17.45-.3.7-.49,1.2-.39,1.11-.57,1.77a13.3,13.3,0,0,0-.44,2,21.5,21.5,0,0,0-.26,4,7.43,7.43,0,0,0,1.61,4.41,4.42,4.42,0,0,0,3.21-3.14,6.39,6.39,0,0,0,.24-1.17,8.15,8.15,0,0,0,0-1.21,11.55,11.55,0,0,0-.17-1.2C665.37,73.41,665.27,73,665.16,72.59Z"/><path class="cls-1" d="M683.52,59.9c.09-.38.13-.6.13-.6l-1.9,1a40,40,0,0,0-4,2.52,15.05,15.05,0,0,0-3.84,3.43,10.64,10.64,0,0,0-.66,1,5.49,5.49,0,0,0-.46,1.06,5,5,0,0,0-.15,2.41,5.63,5.63,0,0,0,4.79-.81,9.5,9.5,0,0,0,1.05-.78,8.6,8.6,0,0,0,1-1A18,18,0,0,0,681,66a20,20,0,0,0,2-4.52C683.25,60.81,683.42,60.27,683.52,59.9Z"/><path class="cls-1" d="M668.44,69.29A4.71,4.71,0,0,0,670,67.51a5.08,5.08,0,0,0,.39-1.07,5,5,0,0,0,.16-1.16,11.21,11.21,0,0,0-1.16-4.77A21.51,21.51,0,0,0,667,56.8c-.37-.45-.69-.81-.94-1.06l-.39-.38-.08.46c-.06.29-.16.71-.25,1.22a36,36,0,0,0-.37,3.92,13.88,13.88,0,0,0,.1,2.31c0,.19.06.39.08.58l.09.57a7.2,7.2,0,0,0,.29,1.13A6.48,6.48,0,0,0,668.44,69.29Z"/><path class="cls-1" d="M679.64,48.91c-.3.32-.59.66-.86,1l-.83,1a12,12,0,0,0-1.33,2.14,7.7,7.7,0,0,0-.41,1.1,5.67,5.67,0,0,0-.25,1.14,5.09,5.09,0,0,0,.31,2.37A5.63,5.63,0,0,0,680.83,56a10.68,10.68,0,0,0,.88-1,11.14,11.14,0,0,0,.72-1.15,18.44,18.44,0,0,0,1.14-2.56,11.13,11.13,0,0,0,.39-1.33c.1-.44.19-.87.27-1.3a21.63,21.63,0,0,0,.35-2.3c.08-1.37,0-2.26,0-2.26s-.66.55-1.6,1.44S680.82,47.6,679.64,48.91Z"/><path class="cls-1" d="M673.12,54.71a5.36,5.36,0,0,0,.19-1.12,5.79,5.79,0,0,0-.12-1.16,9.33,9.33,0,0,0-.78-2.28l-.28-.54c-.11-.18-.23-.36-.35-.53a10.86,10.86,0,0,0-.75-1,15.69,15.69,0,0,0-1.6-1.72,8.82,8.82,0,0,0-.81-.7c-.26-.21-.52-.41-.76-.58-1-.68-1.62-1.06-1.62-1.06a15.8,15.8,0,0,0,.09,1.65c0,.25,0,.52.07.81s.05.59.09.91c.07.64.21,1.33.35,2a12.5,12.5,0,0,0,.56,2.16,10.86,10.86,0,0,0,.43,1.07,8.62,8.62,0,0,0,.5,1A6.63,6.63,0,0,0,672,56.73,4.62,4.62,0,0,0,673.12,54.71Z"/><path class="cls-1" d="M676.35,39.69a6.08,6.08,0,0,0-.11,2.32,5.63,5.63,0,0,0,.3,1.12,5.33,5.33,0,0,0,.54,1.1,5.43,5.43,0,0,0,4-2.75A10.65,10.65,0,0,0,682.17,39a15.84,15.84,0,0,0,.44-2.77c0-.47.07-.94.07-1.4s0-.89-.07-1.32c-.06-.86-.16-1.65-.26-2.33-.27-1.33-.53-2.19-.53-2.19s-.49.71-1.17,1.81l-1.16,1.89c-.42.7-.85,1.46-1.26,2.24s-.8,1.58-1.14,2.37A12.59,12.59,0,0,0,676.35,39.69Z"/><path class="cls-1" d="M672.92,39.46a8.43,8.43,0,0,0-1.35-2c-.27-.3-.56-.6-.85-.87a10.37,10.37,0,0,0-1-.77,16.24,16.24,0,0,0-3.82-2,17.22,17.22,0,0,0-1.84-.59,14.06,14.06,0,0,0,.52,1.54c.15.47.33,1,.57,1.6.12.29.26.59.4.89s.27.63.43,1a12.53,12.53,0,0,0,1.1,1.89,9.22,9.22,0,0,0,1.38,1.76,6.94,6.94,0,0,0,4.24,2,4.89,4.89,0,0,0,.51-1.09,3.61,3.61,0,0,0,.16-1.12A5.87,5.87,0,0,0,672.92,39.46Z"/><path class="cls-1" d="M675.39,15.28s-.3.79-.72,2-.9,2.84-1.34,4.56a25.82,25.82,0,0,0-.49,2.57,10.52,10.52,0,0,0-.13,2.48c0,.39.07.79.14,1.16a5.75,5.75,0,0,0,.34,1.09,4.81,4.81,0,0,0,.58,1,5.67,5.67,0,0,0,.8.92,5.45,5.45,0,0,0,2.06-1.49,5.93,5.93,0,0,0,1.13-2.19,9.1,9.1,0,0,0,.39-2.64A17.51,17.51,0,0,0,677.9,22a21.16,21.16,0,0,0-1.51-4.72c-.27-.61-.52-1.11-.7-1.46S675.39,15.28,675.39,15.28Z"/><path class="cls-1" d="M670,28.05a4.48,4.48,0,0,0-.63-.95,8.68,8.68,0,0,0-1.78-1.57,12.22,12.22,0,0,0-2.19-1.12c-.38-.14-.76-.28-1.13-.4a11.53,11.53,0,0,0-1.12-.29c-.72-.16-1.39-.27-2-.34s-1-.11-1.39-.12l-.53,0s.07.14.23.39.35.6.63,1q.2.32.45.66l.27.36.26.38a17.08,17.08,0,0,0,1.28,1.58,13,13,0,0,0,1.51,1.56l.44.35a4.7,4.7,0,0,0,.43.35,7.45,7.45,0,0,0,.93.61,7.64,7.64,0,0,0,2.14.84,6.41,6.41,0,0,0,2.48.05,4.09,4.09,0,0,0,.22-1.18,4.56,4.56,0,0,0-.14-1.11A5,5,0,0,0,670,28.05Z"/><path class="cls-1" d="M668.87,19.07a5.64,5.64,0,0,0,2.22-4.32,10.36,10.36,0,0,0-.24-2.62A15.09,15.09,0,0,0,670,9.54a23.25,23.25,0,0,0-1.21-2.34c-.42-.72-.88-1.34-1.26-1.87s-.74-.94-1-1.23l-.39-.44s-.14.84-.28,2.1c-.07.64-.15,1.39-.21,2.18,0,.4,0,.81-.07,1.23s0,.87-.05,1.3a17.09,17.09,0,0,0,.52,5,5.92,5.92,0,0,0,1,2.06A4.91,4.91,0,0,0,668.87,19.07Z"/><path class="cls-1" d="M662.92,16.05a9.94,9.94,0,0,0-4.49-1.71,14.78,14.78,0,0,0-2.35-.19c-.74,0-1.42,0-2,.09-1.17.12-1.92.28-1.92.28l.31.33c.2.21.51.5.85.86s.81.74,1.29,1.17,1,.86,1.61,1.28a14.79,14.79,0,0,0,1.87,1.18,9.35,9.35,0,0,0,2.08.88,6.67,6.67,0,0,0,4.69-.25,4.47,4.47,0,0,0-.46-2.24A5.61,5.61,0,0,0,662.92,16.05Z"/><path class="cls-1" d="M752.34,96.58a8.33,8.33,0,0,0-2.28-1.3,8.5,8.5,0,0,0-2.41-.46,19.51,19.51,0,0,0-5.24.66c-1.75.43-3.41,1-4.65,1.38s-2,.73-2,.73a20.63,20.63,0,0,0,2,1,22.85,22.85,0,0,0,5,1.49,13.24,13.24,0,0,0,5.78-.15A5.21,5.21,0,0,0,752.34,96.58Z"/><path class="cls-1" d="M747,88.83a10.12,10.12,0,0,0,3,4,5.3,5.3,0,0,0,2.14,1,4.08,4.08,0,0,0,2.4-.23,8,8,0,0,0-1.23-4.53,13.78,13.78,0,0,0-3-3.28A31.5,31.5,0,0,0,747,83.5c-.89-.56-1.49-.89-1.49-.89a5.39,5.39,0,0,0,0,.55c0,.34.09.82.18,1.41A17.71,17.71,0,0,0,747,88.83Z"/><path class="cls-1" d="M734.45,92.9a5.53,5.53,0,0,0,4.38-2.21,6.14,6.14,0,0,0-3.76-2.88,20.41,20.41,0,0,0-5.23-.67c-1.8-.06-3.59,0-4.93,0l-2.25,0s.17.19.48.49.77.72,1.33,1.18A21.33,21.33,0,0,0,729,91.68,12.22,12.22,0,0,0,734.45,92.9Z"/><path class="cls-1" d="M737.77,86a4.82,4.82,0,0,0,4.1,2,6.67,6.67,0,0,0,.11-4.75,14.47,14.47,0,0,0-2.16-4c-.86-1.18-1.73-2.18-2.37-2.9-.31-.36-.57-.65-.77-.84s-.28-.31-.28-.31-.06.18-.15.5-.18.79-.27,1.36a14.6,14.6,0,0,0,0,4.36A9.94,9.94,0,0,0,737.77,86Z"/><path class="cls-1" d="M716.37,73.47c-1.24-.39-2-.62-2-.62l.23.55c.17.34.42.82.74,1.39s.71,1.23,1.16,1.92c.23.35.47.7.73,1.06l.2.28.25.33.53.66a11.43,11.43,0,0,0,5,3.6,5.22,5.22,0,0,0,4.93-.72,7,7,0,0,0-2.72-4c-.32-.26-.69-.5-1-.75s-.75-.48-1.14-.71-.8-.49-1.21-.72-.78-.41-1.18-.6A35.77,35.77,0,0,0,716.37,73.47Z"/><path class="cls-1" d="M728.51,76.57a4.41,4.41,0,0,0,3.21,3.13,7.49,7.49,0,0,0,1.61-4.41,21.5,21.5,0,0,0-.26-4,14.27,14.27,0,0,0-.44-2c-.18-.67-.39-1.27-.58-1.78s-.36-.91-.48-1.2-.17-.45-.17-.45-.12.16-.31.46a13.82,13.82,0,0,0-.71,1.24,22,22,0,0,0-1.67,4.14c-.12.41-.22.82-.3,1.24a11.55,11.55,0,0,0-.18,1.2,8.29,8.29,0,0,0,0,1.22A6.56,6.56,0,0,0,728.51,76.57Z"/><path class="cls-1" d="M714.47,67.34a7.83,7.83,0,0,0,1,1,9.5,9.5,0,0,0,1.05.78,5.62,5.62,0,0,0,4.79.81,5.22,5.22,0,0,0-.15-2.41,5,5,0,0,0-.47-1.06,9.9,9.9,0,0,0-.65-1A15.22,15.22,0,0,0,716.16,62a40,40,0,0,0-4-2.52l-1.9-1a5.07,5.07,0,0,0,.13.6c.1.38.26.91.47,1.54a20.32,20.32,0,0,0,2,4.52A18,18,0,0,0,714.47,67.34Z"/><path class="cls-1" d="M723.9,66.66a4.6,4.6,0,0,0,1.52,1.78,6.46,6.46,0,0,0,3-3.74,8.48,8.48,0,0,0,.28-1.13,5.21,5.21,0,0,0,.09-.57l.09-.58a13.88,13.88,0,0,0,.1-2.31,38.05,38.05,0,0,0-.38-3.92c-.08-.51-.18-.93-.24-1.22l-.08-.46-.39.38c-.25.25-.57.61-.94,1.06a20.39,20.39,0,0,0-2.41,3.71,11.21,11.21,0,0,0-1.16,4.77,4.39,4.39,0,0,0,.15,1.16A5.73,5.73,0,0,0,723.9,66.66Z"/><path class="cls-1" d="M711.44,53a8.92,8.92,0,0,0,.72,1.15,9.4,9.4,0,0,0,.88,1,5.64,5.64,0,0,0,4.56,1.73,5.28,5.28,0,0,0,.31-2.38,6.16,6.16,0,0,0-.25-1.13,8.73,8.73,0,0,0-.42-1.11,10.93,10.93,0,0,0-1.33-2.14l-.82-1c-.28-.34-.56-.67-.85-1-1.19-1.3-2.5-2.5-3.41-3.39s-1.59-1.45-1.59-1.45,0,.91,0,2.27c.05.67.19,1.46.34,2.31.08.42.18.85.28,1.3a9.42,9.42,0,0,0,.39,1.32A18.44,18.44,0,0,0,711.44,53Z"/><path class="cls-1" d="M721.9,55.88a6.61,6.61,0,0,0,3.64-3.05,8,8,0,0,0,.49-1,8.92,8.92,0,0,0,.44-1.07,13.48,13.48,0,0,0,.56-2.16c.13-.71.28-1.4.35-2,0-.32.06-.63.09-.92s0-.56.06-.81a14.43,14.43,0,0,0,.1-1.64,19.21,19.21,0,0,0-1.63,1l-.76.58c-.27.22-.54.45-.8.7a16.79,16.79,0,0,0-1.61,1.72c-.26.32-.5.65-.75,1l-.34.53c-.1.18-.19.36-.28.54a9.36,9.36,0,0,0-.79,2.28,6.6,6.6,0,0,0-.11,1.16,5.24,5.24,0,0,0,.18,1.12A4.76,4.76,0,0,0,721.9,55.88Z"/><path class="cls-1" d="M715.64,34.08c-.41-.78-.84-1.54-1.26-2.24s-.84-1.35-1.16-1.89c-.68-1.09-1.18-1.81-1.18-1.81s-.25.86-.52,2.19c-.11.68-.2,1.47-.26,2.33,0,.43-.06.87-.07,1.33s0,.92.07,1.39a16,16,0,0,0,.44,2.77,10.64,10.64,0,0,0,1,2.48,5.47,5.47,0,0,0,4,2.75,4.87,4.87,0,0,0,.54-1.1,6.43,6.43,0,0,0,.31-1.12,6.1,6.1,0,0,0-.12-2.32,11.59,11.59,0,0,0-.73-2.38C716.44,35.66,716,34.85,715.64,34.08Z"/><path class="cls-1" d="M725.38,41a8.56,8.56,0,0,0,1.39-1.75,13.44,13.44,0,0,0,1.1-1.89c.16-.32.27-.64.43-.94s.28-.61.39-.9c.25-.58.42-1.13.58-1.59a13,13,0,0,0,.51-1.55,17,17,0,0,0-1.84.6,15.94,15.94,0,0,0-3.81,2,10.37,10.37,0,0,0-1,.77c-.3.28-.59.57-.86.87a8.59,8.59,0,0,0-1.34,2,5.7,5.7,0,0,0-.47,2.21,3.54,3.54,0,0,0,.15,1.11,5.23,5.23,0,0,0,.52,1.1A6.85,6.85,0,0,0,725.38,41Z"/><path class="cls-1" d="M720.09,29.31a4.86,4.86,0,0,0,.59-1,5.75,5.75,0,0,0,.34-1.09c.07-.37.1-.77.14-1.16a11.08,11.08,0,0,0-.13-2.48,23.3,23.3,0,0,0-.5-2.57c-.44-1.72-.91-3.33-1.34-4.56s-.71-2-.71-2-.12.19-.3.53-.43.83-.7,1.44A21.58,21.58,0,0,0,716,21.13a17.49,17.49,0,0,0-.24,2.78,7.78,7.78,0,0,0,.1,1.36,10.37,10.37,0,0,0,.28,1.28,5.88,5.88,0,0,0,1.14,2.19,5.49,5.49,0,0,0,2,1.49A4.84,4.84,0,0,0,720.09,29.31Z"/><path class="cls-1" d="M734.38,22.78c.15-.24.23-.39.23-.39l-.53,0a12.94,12.94,0,0,0-1.4.12,18.87,18.87,0,0,0-2,.35c-.36.08-.75.17-1.12.28s-.74.25-1.12.41a12.18,12.18,0,0,0-2.19,1.11,9.05,9.05,0,0,0-1.79,1.58,4.2,4.2,0,0,0-.62.95,5.45,5.45,0,0,0-.4,1,4.56,4.56,0,0,0-.14,1.11,4.64,4.64,0,0,0,.23,1.18,6.6,6.6,0,0,0,2.48-.06,7.74,7.74,0,0,0,2.13-.83,7.27,7.27,0,0,0,.94-.62l.43-.34.43-.36a13.11,13.11,0,0,0,1.52-1.56,18.91,18.91,0,0,0,1.28-1.58c.09-.13.17-.26.26-.38l.26-.36c.17-.23.33-.45.46-.66C734,23.38,734.23,23,734.38,22.78Z"/><path class="cls-1" d="M725,18.23a4.9,4.9,0,0,0,1.79-1.52,5.67,5.67,0,0,0,1-2.06,16.69,16.69,0,0,0,.53-5c0-.44,0-.88-.05-1.31s0-.83-.08-1.22c-.06-.8-.13-1.55-.21-2.19-.13-1.26-.27-2.1-.27-2.1l-.4.44c-.24.29-.6.7-1,1.24a20.53,20.53,0,0,0-1.26,1.86,19.73,19.73,0,0,0-1.21,2.34,16.12,16.12,0,0,0-.85,2.6,9.86,9.86,0,0,0-.25,2.62A5.68,5.68,0,0,0,725,18.23Z"/><path class="cls-1" d="M737.65,17.31A17.09,17.09,0,0,0,739.26,16c.49-.42.94-.82,1.29-1.17s.66-.65.86-.86.31-.33.31-.33a16.61,16.61,0,0,0-1.93-.28,17.45,17.45,0,0,0-2-.08,14.74,14.74,0,0,0-2.35.18A10.17,10.17,0,0,0,731,15.2a5.61,5.61,0,0,0-1.47,1.68,4.47,4.47,0,0,0-.46,2.24,6.67,6.67,0,0,0,4.69.25,9.82,9.82,0,0,0,2.08-.87A15.14,15.14,0,0,0,737.65,17.31Z"/><path class="cls-1" d="M734.43,85.74c4.76,4,10.57,6.65,16.26,9,4.67,1.88,10.64,5,16.74,7.83a123.55,123.55,0,0,1-15.22,3.83c-.57.09,2.35,3.06,2.9,2.9,5-1.52,10.16-3.36,15.2-5.4,5.52,2.51,11,4.65,15.44,5.4.56.1,2.32-2.9,1.75-3a110.57,110.57,0,0,1-14.31-3.58,261.35,261.35,0,0,0,23.64-11.41A39.35,39.35,0,0,0,814,73.33a61.18,61.18,0,0,0,6.32-23.4c.5-11.19-3.25-22.17-9.08-31.61a71.8,71.8,0,0,0-5.74-8.07,4.67,4.67,0,0,0,.09-2.06,5.51,5.51,0,0,0-.9-2.17,10.66,10.66,0,0,0-3.8-3.26,17.55,17.55,0,0,0-4.16-1.6c-.58-.14-1.06-.22-1.39-.27l-.38,0h-.12a.67.67,0,0,0,0,.12c0,.07.09.19.16.33.16.3.37.72.65,1.23a41.5,41.5,0,0,0,2.17,3.64A20.19,20.19,0,0,0,799.3,8a9.07,9.07,0,0,0,.82.82,5.94,5.94,0,0,0,.87.72,6.24,6.24,0,0,0,2,.95,5.64,5.64,0,0,0,1.76.16,69.12,69.12,0,0,1,9.93,16,52.37,52.37,0,0,1,4.75,22.75c-.19,8.54-3,17.22-6.87,24.8a36.51,36.51,0,0,1-12.88,14.32,108,108,0,0,1-15.83,8c-4.05,1.76-8.87,3.56-13.75,5.16a178.48,178.48,0,0,1-29-12.5,38.62,38.62,0,0,1-10.51-8.43A43,43,0,0,1,723.81,69C720.56,61,718.5,52.82,719,44.18c.59-10.07,4.55-19.7,10.06-28a72.7,72.7,0,0,1,4.61-6.28,6,6,0,0,0,1.71-.17,6.45,6.45,0,0,0,2-.95,8.19,8.19,0,0,0,.87-.71,10.58,10.58,0,0,0,.81-.83,17.52,17.52,0,0,0,1.44-1.87c.88-1.3,1.63-2.63,2.18-3.64.27-.51.49-.93.63-1.23l.18-.34a.82.82,0,0,0,0-.11h-.12L743,0c-.33,0-.81.13-1.38.27a17.6,17.6,0,0,0-4.17,1.6,10.54,10.54,0,0,0-3.79,3.26,5.48,5.48,0,0,0-.9,2.17,4.48,4.48,0,0,0,.07,2,69.67,69.67,0,0,0-9.6,15.27,54.67,54.67,0,0,0-5.22,21c-.32,8.36,2,16.38,5.1,24A40.28,40.28,0,0,0,734.43,85.74Z"/><path class="cls-1" d="M795.65,100.93a22.92,22.92,0,0,0,4.94-1.49c1.27-.55,2.06-1,2.06-1s-.81-.32-2-.73-2.89-.95-4.64-1.38a19.61,19.61,0,0,0-5.24-.66,8.11,8.11,0,0,0-2.41.46A8.44,8.44,0,0,0,786,97.42a5.2,5.2,0,0,0,3.84,3.36A13.28,13.28,0,0,0,795.65,100.93Z"/><path class="cls-1" d="M786.26,94.66a5.43,5.43,0,0,0,2.14-1,10.29,10.29,0,0,0,3-4,18.1,18.1,0,0,0,1.25-4.26c.1-.59.15-1.08.19-1.42s0-.54,0-.54-.61.33-1.49.88a35,35,0,0,0-3.22,2.27,14,14,0,0,0-3,3.29,7.81,7.81,0,0,0-1.23,4.53A4.07,4.07,0,0,0,786.26,94.66Z"/><path class="cls-1" d="M808.52,88a20.27,20.27,0,0,0-5.22.67,6.1,6.1,0,0,0-3.76,2.87,5.53,5.53,0,0,0,4.38,2.22,12.07,12.07,0,0,0,5.45-1.23,20.68,20.68,0,0,0,4.52-2.83c.57-.46,1-.89,1.33-1.18l.48-.49-2.24,0C812.11,88,810.33,87.93,808.52,88Z"/><path class="cls-1" d="M796.49,88.85a4.81,4.81,0,0,0,4.1-2,9.73,9.73,0,0,0,1.82-4.57,14.59,14.59,0,0,0,0-4.36,13.5,13.5,0,0,0-.27-1.36c-.09-.32-.15-.5-.15-.5l-.28.3c-.2.2-.46.49-.77.85-.64.72-1.51,1.72-2.36,2.89a14.92,14.92,0,0,0-2.17,4A6.7,6.7,0,0,0,796.49,88.85Z"/><path class="cls-1" d="M820.2,79.89l.53-.66.25-.34.2-.27c.25-.36.5-.71.72-1.06.45-.69.84-1.35,1.17-1.92s.56-1,.73-1.39.23-.55.23-.55-.8.23-2,.62a36.39,36.39,0,0,0-4.42,1.7c-.4.19-.78.38-1.17.6s-.82.47-1.21.71-.78.47-1.15.72-.72.49-1,.75a6.9,6.9,0,0,0-2.71,4,5.21,5.21,0,0,0,4.92.72A11.51,11.51,0,0,0,820.2,79.89Z"/><path class="cls-1" d="M809.66,72.59A22.7,22.7,0,0,0,808,68.45c-.28-.53-.52-.94-.72-1.24l-.3-.46s-.07.16-.18.45-.29.7-.48,1.2-.39,1.11-.58,1.77a14.54,14.54,0,0,0-.43,2,20.67,20.67,0,0,0-.26,4,7.41,7.41,0,0,0,1.6,4.41,4.44,4.44,0,0,0,3.22-3.14,7.35,7.35,0,0,0,.24-1.17,8.15,8.15,0,0,0,0-1.21,9.37,9.37,0,0,0-.17-1.2C809.87,73.41,809.77,73,809.66,72.59Z"/><path class="cls-1" d="M828,59.9c.09-.38.12-.6.12-.6l-1.89,1a40,40,0,0,0-4,2.52,15.27,15.27,0,0,0-3.85,3.43,10.53,10.53,0,0,0-.65,1,5,5,0,0,0-.47,1.06,5.09,5.09,0,0,0-.14,2.41,5.61,5.61,0,0,0,4.78-.81,9.6,9.6,0,0,0,1.06-.78,7.75,7.75,0,0,0,.95-1A17.1,17.1,0,0,0,825.5,66a20.44,20.44,0,0,0,2-4.52C827.75,60.81,827.91,60.27,828,59.9Z"/><path class="cls-1" d="M812.94,69.29a4.71,4.71,0,0,0,1.53-1.78,5.7,5.7,0,0,0,.39-1.07,5,5,0,0,0,.16-1.16,11.21,11.21,0,0,0-1.16-4.77,21.51,21.51,0,0,0-2.41-3.71c-.38-.45-.69-.81-.94-1.06l-.39-.38s0,.17-.08.46-.16.71-.25,1.22a38.34,38.34,0,0,0-.38,3.92,12.9,12.9,0,0,0,.11,2.31c0,.19.05.39.08.58s.06.38.09.57a8.48,8.48,0,0,0,.28,1.13A6.46,6.46,0,0,0,812.94,69.29Z"/><path class="cls-1" d="M824.14,48.91c-.3.32-.59.66-.87,1l-.82,1a10.93,10.93,0,0,0-1.33,2.14,7.7,7.7,0,0,0-.41,1.1,5.06,5.06,0,0,0-.25,1.14,5,5,0,0,0,.31,2.37A5.61,5.61,0,0,0,825.32,56a8.4,8.4,0,0,0,.88-1,11.21,11.21,0,0,0,.73-1.15,18.44,18.44,0,0,0,1.14-2.56,9.49,9.49,0,0,0,.38-1.33c.11-.44.2-.87.28-1.3a21.4,21.4,0,0,0,.34-2.3c.08-1.37.06-2.26.06-2.26s-.67.55-1.6,1.44S825.31,47.6,824.14,48.91Z"/><path class="cls-1" d="M817.62,54.71a5.34,5.34,0,0,0,.18-1.12,5.76,5.76,0,0,0-.11-1.16,9.36,9.36,0,0,0-.79-2.28c-.08-.18-.18-.36-.28-.54a6,6,0,0,0-.34-.53c-.24-.35-.49-.69-.75-1a17.92,17.92,0,0,0-1.6-1.72,10.39,10.39,0,0,0-.81-.7c-.26-.21-.52-.41-.76-.58-1-.68-1.63-1.06-1.63-1.06a14.55,14.55,0,0,0,.1,1.65c0,.25,0,.52.07.81s.05.59.09.91c.07.64.21,1.33.35,2a13.43,13.43,0,0,0,.55,2.16,10.94,10.94,0,0,0,.44,1.07,8.62,8.62,0,0,0,.5,1,6.57,6.57,0,0,0,3.63,3.06A4.62,4.62,0,0,0,817.62,54.71Z"/><path class="cls-1" d="M820.85,39.69a6.08,6.08,0,0,0-.11,2.32,5.63,5.63,0,0,0,.3,1.12,5.33,5.33,0,0,0,.54,1.1,5.45,5.45,0,0,0,4-2.75A10.65,10.65,0,0,0,826.67,39a15.84,15.84,0,0,0,.44-2.77c0-.47.06-.94.07-1.4s0-.89-.07-1.32c-.07-.86-.16-1.65-.26-2.33-.27-1.33-.53-2.19-.53-2.19s-.49.71-1.17,1.81c-.34.54-.73,1.18-1.16,1.89s-.86,1.46-1.26,2.24-.81,1.58-1.14,2.37A12.59,12.59,0,0,0,820.85,39.69Z"/><path class="cls-1" d="M817.41,39.46a8.38,8.38,0,0,0-1.34-2,11.77,11.77,0,0,0-.86-.87,9.11,9.11,0,0,0-1-.77,16.43,16.43,0,0,0-3.82-2,18.11,18.11,0,0,0-1.84-.59,12.56,12.56,0,0,0,.51,1.54c.16.47.33,1,.58,1.6.12.29.25.59.4.89s.27.63.43,1a12.46,12.46,0,0,0,1.09,1.89A9.7,9.7,0,0,0,813,41.82a6.91,6.91,0,0,0,4.24,2,4.89,4.89,0,0,0,.51-1.09,3.94,3.94,0,0,0,.16-1.12A5.7,5.7,0,0,0,817.41,39.46Z"/><path class="cls-1" d="M819.89,15.28s-.3.79-.72,2-.9,2.84-1.34,4.56a25.88,25.88,0,0,0-.5,2.57,11.08,11.08,0,0,0-.13,2.48,10.8,10.8,0,0,0,.15,1.16,4.6,4.6,0,0,0,.34,1.09,4.81,4.81,0,0,0,.58,1,5.67,5.67,0,0,0,.8.92,5.41,5.41,0,0,0,2-1.49,5.81,5.81,0,0,0,1.14-2.19,9.1,9.1,0,0,0,.39-2.64A18.77,18.77,0,0,0,822.4,22a20.63,20.63,0,0,0-1.52-4.72c-.27-.61-.51-1.11-.69-1.46S819.89,15.28,819.89,15.28Z"/><path class="cls-1" d="M814.5,28.05a4.48,4.48,0,0,0-.63-.95,9,9,0,0,0-1.79-1.57,11.9,11.9,0,0,0-2.19-1.12c-.37-.14-.75-.28-1.12-.4s-.76-.21-1.12-.29c-.72-.16-1.4-.27-2-.34s-1-.11-1.39-.12l-.54,0,.24.39c.15.24.34.6.62,1,.14.21.29.43.46.66l.27.36.26.38a16.91,16.91,0,0,0,1.27,1.58,13.93,13.93,0,0,0,1.52,1.56l.43.35c.15.13.29.24.44.35a8.28,8.28,0,0,0,3.07,1.45,6.4,6.4,0,0,0,2.48.05A4.9,4.9,0,0,0,815,30.2a4.56,4.56,0,0,0-.14-1.11A5.68,5.68,0,0,0,814.5,28.05Z"/><path class="cls-1" d="M813.36,19.07a5.62,5.62,0,0,0,2.23-4.32,10.84,10.84,0,0,0-.24-2.62,14.3,14.3,0,0,0-.86-2.59,19.73,19.73,0,0,0-1.21-2.34A20.86,20.86,0,0,0,812,5.33c-.39-.53-.74-.94-1-1.23l-.4-.44s-.14.84-.27,2.1c-.07.64-.15,1.39-.21,2.18,0,.4-.06.81-.07,1.23s-.05.87-.05,1.3a16.76,16.76,0,0,0,.52,5,6.08,6.08,0,0,0,1,2.06A5.08,5.08,0,0,0,813.36,19.07Z"/><path class="cls-1" d="M807.41,16.05a9.89,9.89,0,0,0-4.49-1.71,14.65,14.65,0,0,0-2.34-.19,20.05,20.05,0,0,0-2,.09c-1.17.12-1.92.28-1.92.28s.1.12.3.33.51.5.86.86.81.74,1.29,1.17,1,.86,1.61,1.28a14.11,14.11,0,0,0,1.87,1.18,9.48,9.48,0,0,0,2.07.88,6.7,6.7,0,0,0,4.7-.25,4.47,4.47,0,0,0-.46-2.24A5.51,5.51,0,0,0,807.41,16.05Z"/><text class="cls-2" transform="translate(20.02 54.2)">Luceafa<tspan class="cls-3" x="56.64" y="0">r</tspan><tspan x="63.67" y="0">ul</tspan></text><text class="cls-2" transform="translate(174.07 54.2)">Capcaun</text><text class="cls-2" transform="translate(325.57 54.2)">Zmeu</text><text class="cls-2" transform="translate(464.77 54.2)">Balaur</text><text class="cls-4" transform="translate(606.24 54.2)">Zana</text><text class="cls-5" transform="translate(747.67 54.2)">Urias</text></g></g></svg>