<svg xmlns="http://www.w3.org/2000/svg" viewBox="0 0 46.09 32.34"><defs><style>.cls-1{fill:#fff;}</style></defs><g id="Layer_2" data-name="Layer 2"><g id="Layer_2-2" data-name="Layer 2"><path class="cls-1" d="M22.68,27.9a45.25,45.25,0,0,0,7.72,1.48c-2.26,1.19-4.51,2.09-7,1.82a15.17,15.17,0,0,1-5.64-2.08A23.94,23.94,0,0,0,22.68,27.9Zm-11.3,1.43A12.6,12.6,0,0,0,16.06,32a14.6,14.6,0,0,0,5,.14,57.45,57.45,0,0,1-5.32-2.85A36.45,36.45,0,0,1,11.38,29.33Zm19.27-5.92a31,31,0,0,1-6.09,3.72,16.23,16.23,0,0,0,7.68.07c2.13-.55,4.25-2.54,5.36-3.91A54.48,54.48,0,0,1,30.65,23.41ZM2.74,22.7a6.75,6.75,0,0,1,.58-1.42,21.58,21.58,0,0,0,2.44,6.45c.83.15,1.64.28,2.42.39-.46-.5-.9-1-1.33-1.58a15.83,15.83,0,0,1-2.91-6.21,6.49,6.49,0,0,1,.71-.79A16.11,16.11,0,0,0,7.8,25.77a22.24,22.24,0,0,0,2.43,2.58,34.61,34.61,0,0,0,4.13.14c-.5-.33-1-.68-1.51-1a19.1,19.1,0,0,1-6.81-9A8.41,8.41,0,0,1,6.83,18L7,18a19.42,19.42,0,0,0,6.61,8.48c.95.68,1.91,1.31,2.87,1.89a22.61,22.61,0,0,0,4.57-1c-.71-.24-1.42-.48-2.14-.76A19.5,19.5,0,0,1,8.38,17.32l1-.45a19.24,19.24,0,0,0,9.91,8.62c1.21.47,2.4.86,3.58,1.2a29.92,29.92,0,0,0,5.85-3.38h-.12c-.45,0-.9-.07-1.33-.12-8-.84-12.74-4.3-15.33-7.24.37-.1.75-.2,1.14-.28,2.8,2.76,7.67,5.89,15.6,6.42l1.55.09a22.53,22.53,0,0,0,4-4.13,28.86,28.86,0,0,1-3.41.12q-1.47,0-2.85-.18a40.29,40.29,0,0,1-11-3.27c.77-.25,1.35-.48,2.24-.69,1.38,1,7.62,2.83,11.65,2.92a29.31,29.31,0,0,0,4.3-.23,23.23,23.23,0,0,0,2.46-5.19c-.59.18-1.19.33-1.81.46-3.59.74-8.68.51-11.75.29a21.81,21.81,0,0,1,6.36-.85h.2a33.9,33.9,0,0,0,4.94-.63,20.94,20.94,0,0,0,2.48-.67A26.15,26.15,0,0,0,38.81,6c-3.31,1.41-6.54,2.46-14.74,3a58.64,58.64,0,0,1-12.58-.46C-.27,6.8,4,12.28,3.3,15.73,2.45,20.15,1,20.85,0,21.7v4.84a6.6,6.6,0,0,1,2.67.57c.57.13,1.12.25,1.67.35A20.2,20.2,0,0,1,2.74,22.7ZM3.05,28A6.11,6.11,0,0,0,5,30.3a7.33,7.33,0,0,0,1.6.75,19.12,19.12,0,0,1-1.8-2.69C4.21,28.23,3.63,28.1,3.05,28Zm3.29.73A7.26,7.26,0,0,0,9,31.14a10.79,10.79,0,0,0,4.36,1.2,26,26,0,0,1-4.17-3.2C8.17,29,7.23,28.85,6.34,28.68Zm38-22.45A10.93,10.93,0,0,0,46.08,0a15.24,15.24,0,0,1-6,5.36,28.49,28.49,0,0,1-.66,4.26C41.8,8.67,43.25,7.88,44.31,6.23ZM36.74,16.48a10.23,10.23,0,0,0,5.48-2.7A9.49,9.49,0,0,0,45,8.07a27.19,27.19,0,0,1-5.91,3A24.86,24.86,0,0,1,36.74,16.48Zm-4.68,5.76c2.62.05,4.22-.11,5.76-1A11,11,0,0,0,42,16.3a28,28,0,0,1-6.08,1.57A23.61,23.61,0,0,1,32.06,22.24Z"/></g></g></svg>