<svg xmlns="http://www.w3.org/2000/svg" viewBox="0 0 102.21 97.09"><defs><style>.cls-1{fill:#ffc900;}</style></defs><g id="Layer_2" data-name="Layer 2"><g id="Layer_2-2" data-name="Layer 2"><path class="cls-1" d="M69.56,30.47l30.05,4.38A3,3,0,0,1,101.28,40L79.51,61.08a3,3,0,0,0-.87,2.67l5.1,29.81a3,3,0,0,1-4.41,3.18L52.47,82.64a3,3,0,0,0-2.83,0l-26.9,14a3,3,0,0,1-4.4-3.19l5.17-29.79A3,3,0,0,0,22.64,61L.92,39.89a3,3,0,0,1,1.69-5.15l30.05-4.31A3,3,0,0,0,35,28.77L48.42,1.68a3,3,0,0,1,5.45,0L67.28,28.81A3,3,0,0,0,69.56,30.47Z"/></g></g></svg>